<?xml version="1.0" encoding="UTF-8"?>
<svg width="1521px" height="763px" viewBox="0 0 1521 763" version="1.1" xmlns="http://www.w3.org/2000/svg" xmlns:xlink="http://www.w3.org/1999/xlink">
    <title>Group 127</title>
    <g id="Page-1" stroke="none" stroke-width="1" fill="none" fill-rule="evenodd">
        <g id="Desktop-HD-Copy-16" transform="translate(-229.000000, -948.000000)">
            <g id="Group-10" transform="translate(210.000000, 948.000000)">
                <g id="Group-127" transform="translate(19.000000, 0.000000)">
                    <path d="M275.80862,411.988805 C274.276789,411.988805 272.728399,412.261564 271.30007,412.823368 C269.714419,413.446237 266.990245,414.981019 266.580377,418.225638 C266.336112,420.151239 267.052346,422.141978 268.592457,423.827388 C270.434793,425.846624 273.204508,427.04758 275.742378,427.04352 C280.660796,426.96616 284.792598,423.505776 287.077923,419.735993 C285.976661,417.496921 284.540053,415.660883 282.780518,414.244161 C280.946462,412.766373 278.400311,411.988805 275.80862,411.988805 M274.591436,472 C273.837941,472 273.113426,471.596967 272.749099,470.892677 C272.227449,469.891201 272.624897,468.665819 273.643357,468.152868 C283.550573,463.153631 289.590953,450.708463 289.802097,434.855834 C289.855918,430.931352 289.508151,427.466898 288.767077,424.474683 C285.38877,428.541652 280.660796,431.037199 275.80862,431.114549 C272.115666,431.110478 268.170168,429.461707 265.508095,426.546843 C263.156529,423.969874 262.080107,420.835174 262.473415,417.7249 C262.961945,413.841128 265.619878,410.673859 269.7641,409.045443 C275.022004,406.973284 281.306649,407.799705 285.40119,411.093176 C286.796398,412.212712 288.017722,413.523587 289.073443,415.0258 C291.98806,404.518447 286.183665,393.046257 282.176066,386.784998 C280.304749,383.861992 278.214007,380.95527 276.185367,378.146252 C271.246249,371.28248 266.137388,364.190729 263.491875,355.93466 C259.600198,343.774465 263.19379,327.771208 275.787919,323.130223 C276.85606,322.735332 278.052544,323.268638 278.454132,324.323037 C278.85158,325.373366 278.309229,326.545825 277.241088,326.940716 C267.24279,330.629078 264.100468,344.279274 267.441514,354.713348 C269.888302,362.358761 274.591436,368.884637 279.563674,375.78912 C281.621295,378.64699 283.749297,381.602565 285.678575,384.611063 C290.547312,392.215765 297.767615,406.875579 291.656854,419.911048 C293.254926,424.018727 294.020841,429.030177 293.942179,434.908758 C293.710335,452.292097 286.829518,466.076637 275.535374,471.776093 C275.233148,471.926721 274.910222,472 274.591436,472" id="Fill-1" fill="#FFE848"></path>
                    <path d="M1161.17748,488.701455 C1159.77407,488.701455 1158.37066,488.963232 1157.12503,489.494841 C1155.88771,490.018395 1154.25594,491.049394 1153.52932,492.96238 C1152.67814,495.225745 1153.31757,498.254304 1155.24414,501.06136 C1158.20873,505.37464 1163.42376,508.141422 1169.5481,508.648867 C1173.07737,508.938836 1176.62326,508.459582 1179.83698,507.331927 C1178.69931,505.016207 1177.34157,502.607858 1175.75963,500.082716 C1173.13135,495.890256 1169.80553,491.34339 1165.0846,489.434431 C1163.87219,488.947123 1162.52691,488.701455 1161.17748,488.701455 M1176.3949,548 C1175.73471,548 1175.08699,547.693922 1174.68423,547.130095 C1174.03236,546.211861 1174.26903,544.959359 1175.2157,544.331094 C1181.37326,540.211126 1185.01049,531.963135 1184.48317,523.320464 C1184.2465,519.401863 1183.27907,515.378551 1181.51443,511.057216 C1177.6945,512.438594 1173.45937,513.022558 1169.19517,512.660097 C1161.80444,512.047942 1155.46005,508.636785 1151.7896,503.296533 C1149.09074,499.361823 1148.30184,495.092843 1149.63466,491.576976 C1150.59379,489.039752 1152.66154,486.989836 1155.4642,485.801771 C1158.90628,484.339847 1163.19955,484.307628 1166.68315,485.717197 C1172.50439,488.07319 1176.32846,493.244294 1179.30551,497.992527 C1180.9705,500.642517 1182.39467,503.17974 1183.59878,505.628363 C1185.2347,504.702075 1186.71285,503.578447 1187.97508,502.289698 C1196.34985,493.715493 1197.21349,478.782119 1189.98054,467.553896 C1183.58217,457.606368 1171.6449,450.477978 1157.2496,447.997137 C1156.11608,447.803824 1155.3687,446.756716 1155.56385,445.66128 C1155.7673,444.569871 1156.81778,443.82884 1157.97621,444.034235 C1173.52995,446.712415 1186.48033,454.505317 1193.50567,465.419407 C1201.7019,478.153854 1200.61821,495.193526 1190.9895,505.060508 C1189.33282,506.75199 1187.40625,508.193778 1185.29283,509.353652 C1187.27338,514.162295 1188.36123,518.66486 1188.62696,523.082851 C1189.25393,533.255911 1185.01049,542.667803 1177.56994,547.645594 C1177.20871,547.883207 1176.8018,548 1176.3949,548" id="Fill-3" fill="#FF3D0F"></path>
                    <path d="M147.919173,370 C145.238592,371.33233 144.014938,373.559569 143,377.496363 C149.11418,379.763732 152.445468,381.786305 156.951299,386 C157.847555,383.170805 159.374054,381.553549 163,378.925006 C158.375486,374.679207 154.008799,372.339604 147.919173,370" id="Fill-5" fill="#FFFFFF"></path>
                    <path d="M1469,520 C1468.91657,516.989526 1468.5865,515.354898 1466.71122,513 C1462.63421,514.311152 1460.13142,514.746765 1456,515.035736 C1456.60938,516.687616 1456.7327,517.994455 1456.6529,519.111522 C1461.37919,518.606901 1464.33901,519.016636 1469,520" id="Fill-7" fill="#FFFFFF"></path>
                    <path d="M1465,247.082395 C1458.91682,242.794012 1454.70395,240.812695 1448.76694,239 C1447.6725,243.909222 1447.84116,247.182036 1448.69573,250.221078 C1452.52255,250.462515 1455.03753,252.106587 1458.71817,255 C1459.96629,250.853413 1461.62295,249.052216 1465,247.082395" id="Fill-9" fill="#FFFFFF"></path>
                    <path d="M1140,24.8963338 C1134.06207,23.1300691 1129.12651,22.3437454 1124.12996,23.6516506 C1122.76934,27.6741505 1122.70455,30.45987 1123.57733,33.6367756 C1129.74774,32.5699043 1133.3608,32.8939171 1139.19583,35 C1138.01053,30.7601745 1137.92668,28.0929963 1140,24.8963338" id="Fill-11" fill="#FFFFFF"></path>
                    <path d="M851.2065,80.5789557 C848.77588,79.629274 846.461486,79.8983505 843,81.0181834 C844.617044,85.4698161 844.930347,88.2357638 844.243103,92.6161703 C846.825321,91.9039091 848.846626,92.0740604 852.747746,93 C853.394563,88.5364963 852.767959,85.0503734 851.2065,80.5789557" id="Fill-13" fill="#FFFFFF"></path>
                    <path d="M354.726356,229 C353.395583,230.001974 352.012002,230.623889 350,231.15696 C352.915026,234.143139 354.699952,236.280355 356.231397,239 C358.491599,238.965449 359.605857,238.397828 361,237.395854 C359.986078,235.357354 357.699472,232.257651 354.726356,229" id="Fill-15" fill="#FFFFFF"></path>
                    <path d="M301,128.392931 C303.785408,129.474012 304.984549,130.800416 306.415021,133 C309.242918,129.39501 311.598712,125.49896 312,123.49896 C310.083262,122.243243 308.147639,121.586279 305.338627,121 C304.923176,123.27027 303.511588,125.2079 301,128.392931" id="Fill-17" fill="#FFFFFF"></path>
                    <path d="M480.266932,463 C482.880478,462.743634 484.422311,461.62322 486,458.755719 C485.163347,455.612861 484.199203,453.485973 482.478088,452 C479.733068,453.296073 477.605578,453.220112 474,452.678895 C476.85259,456.163574 478.52988,458.423392 480.266932,463" id="Fill-21" fill="#FFFFFF"></path>
                    <path d="M316,520.809485 C315.989466,519.710548 315.792828,519.053148 315.069483,518 C313.900193,518.840556 313.050438,519.125102 312.018091,519.200327 C311.947863,520.230581 312.081296,520.93704 312.432434,522 C313.584168,521.355683 314.518196,521.080948 316,520.809485" id="Fill-23" fill="#FFFFFF"></path>
                    <path d="M1195,73.86 C1197.51042,74.376 1198.77083,74.756 1200.35417,75.936 C1200.88542,75.252 1201.34896,74.892 1202,74.768 C1200.39583,73.404 1198.92188,72.788 1196.31771,72.064 C1195.63021,72.596 1195.24479,73.18 1195,73.86" id="Fill-25" fill="#FFFFFF"></path>
                    <path d="M1228.27766,351.886964 C1227.77939,352.866684 1228.02036,353.679217 1228.46145,355 C1231.93712,354.10053 1235.96416,353.99353 1240.63242,354.227593 C1240.33836,353.150904 1240.47722,352.428653 1241,351.291776 C1236.07443,350.803588 1233.27266,350.880494 1228.27766,351.886964" id="Fill-27" fill="#FFFFFF"></path>
                    <path d="M963.588,24 C962.212,25.1451247 960.788,26.5736961 960.044,28.9659864 C960.432,30.7800454 960.624,32.0385488 960.66,34 C961.504,32.8265306 962.324,32.7698413 963.956,33.3650794 C963.4,30.5873016 963.472,27.7868481 963.588,24" id="Fill-29" fill="#FFFFFF"></path>
                    <path d="M1086,106.389764 C1083.70204,102.988189 1081.50297,100.492126 1078.41002,99 C1076.05274,100.389764 1074.86618,101.728346 1074,103.661417 C1077.58734,105.771654 1079.29993,107.472441 1081.40804,111 C1082.55504,108.413386 1083.61503,107.070866 1086,106.389764" id="Fill-31" fill="#FFFFFF"></path>
                    <path d="M497.64291,39 C497.121179,40.1790307 496.956585,40.9901088 497.009379,42.529179 C498.329235,42.3036597 499.130464,42.4856578 499.96896,43 C500.524852,41.9396637 500.757768,41.1088032 501,39.7715134 C499.788839,39.8031652 498.93171,39.5578635 497.64291,39" id="Fill-35" fill="#FFFFFF"></path>
                    <path d="M1260.49448,558.911998 C1256.84863,557.496542 1254.1544,557.695471 1250.40816,559.742145 C1249.7336,563.644214 1249.81391,566.543987 1251.26743,569.244831 C1255.68019,569.635038 1258.47882,571.092576 1263,574 C1261.16503,568.429987 1260.2094,564.933427 1260.49448,558.911998" id="Fill-37" fill="#FFFFFF"></path>
                    <path d="M1275,207.42348 C1281.172,208.48847 1284.28114,209.431866 1288.44724,213 C1289.50034,210.555556 1290.49172,209.213836 1292,208.622642 C1287.74518,204.442348 1284.02269,202.756813 1277.56524,201 C1276.10324,202.974843 1275.37032,205.062893 1275,207.42348" id="Fill-39" fill="#FFFFFF"></path>
                    <path d="M514,113.390661 C512.282636,112.250843 511.068707,110.962646 509.793879,109 C506.598688,112.773541 504.22767,115.157717 501,117.423865 C501.682074,119.777691 502.745784,120.796109 504.479388,122 C506.931605,120.442023 510.455653,117.292348 514,113.390661" id="Fill-41" fill="#FFFFFF"></path>
                    <path d="M84.7531969,615.987752 C81.2784724,617.483043 77.1242846,617.678251 68.2525562,615 C67.6117964,618.626961 68.153647,621.933781 70.2995474,626.087803 C77.2016918,627.251242 81.4160853,627.434737 88,625.853554 C85.5917752,622.780983 85.0843278,620.473627 84.7531969,615.987752" id="Fill-43" fill="#FFFFFF"></path>
                    <path d="M400,66.0712836 C396.251146,62.382134 394.367953,59.8894654 391.927165,55 C389.717831,56.2693436 388.038036,57.7764494 387,60.054365 C388.343135,63.5095872 390.833019,67.2907737 394.599407,72 C395.932021,68.2648319 397.162935,66.5966614 400,66.0712836" id="Fill-45" fill="#FFFFFF"></path>
                    <path d="M946,182.700693 C949.667703,184.504726 952.181899,185.307498 955.698414,186 C956.213572,183.763705 956.028787,182.294896 955.446435,180.940769 C953.206616,180.914304 951.694739,180.226213 949.46052,179 C948.84457,180.89666 947.920644,181.743541 946,182.700693" id="Fill-47" fill="#FFFFFF"></path>
                    <path d="M604.632611,557 C610.64561,554.180973 614.022349,551.859421 618,548.225086 C614.557355,545.602976 611.874572,544.511294 609.087115,544 C607.264994,546.687749 604.88073,547.900345 601,549.499867 C603.775827,551.949243 604.504675,553.81823 604.632611,557" id="Fill-49" fill="#FFFFFF"></path>
                    <path d="M443.654,157 C444.226,156.6194 444.806,156.47005 445.654,156.759114 C445.642,154.147908 445.354,152.490611 444.818,150.086567 C443.566,149.869769 442.846,150.10102 442.346,150.332271 C443.39,152.688138 443.578,154.388794 443.654,157" id="Fill-51" fill="#FFFFFF"></path>
                    <path d="M1409.40978,460 C1410.47223,458.600253 1411.73669,457.669785 1414,457.414918 C1411.87885,451.844248 1409.88489,448.591656 1406.69007,444 C1403.54388,444.825284 1402.00633,446.067257 1401,447.074589 C1405.35079,451.047282 1407.1577,454.490013 1409.40978,460" id="Fill-53" fill="#FFFFFF"></path>
                    <path d="M907,0 C904.0492,0.0939076445 900.840687,0.469538223 898.139008,2.54831199 C897.63647,4.95576251 897.168294,6.56072953 896,8.81878153 C898.113237,8.22972449 899.474815,8.88280947 901.755564,11 C902.588832,7.34187039 904.444358,4.21303842 907,0" id="Fill-55" fill="#FFFFFF"></path>
                    <path d="M125.831507,174.968699 C127.669863,175.134272 128.945662,174.630354 131,173.755696 C128.1621,170.620604 126.459361,166.686441 125.083105,162 C123.385388,162.647895 122.114612,162.748679 120,162.611901 C121.044749,167.633088 122.245205,170.375843 125.831507,174.968699" id="Fill-57" fill="#FFFFFF"></path>
                    <path d="M15,159.25523 C17.5828269,162.933054 18.9438851,166.857741 18.0882491,173 C32.415178,170.853556 41.2660362,167.594142 53.9971044,161.979079 C54.0846579,153.129707 52.170421,148.297071 50.4671083,145 C38.4444272,154.07113 29.271213,156.715481 15,159.25523" id="Fill-59" fill="#0264DF"></path>
                    <path d="M1375.00148,419.577319 C1379.93314,423.998917 1385.55718,424.66687 1394.56617,423.482586 C1394.35157,408.972039 1395.86589,400.407498 1401,387.585272 C1394.38396,388.093408 1389.78432,386.286248 1381.38672,381 C1376.28905,394.088587 1374.94884,405.046283 1375.00148,419.577319" id="Fill-61" fill="#FFE848"></path>
                    <path d="M1488,189.42526 C1490.7404,195.185622 1495.34348,197.816637 1503.45746,200 C1508.136,186.857592 1512.3022,179.690925 1521,170.003045 C1515.15778,168.07307 1511.82164,164.787468 1506.40438,157 C1497.64701,166.945492 1492.82549,176.325083 1488,189.42526" id="Fill-63" fill="#FFE848"></path>
                    <path d="M532,67 C526.405501,67.2014196 523.375629,68.0156689 519,72.6311772 C521.426205,82.6721575 522.241349,88.830454 522.771961,99 C525.847974,97.5043525 528.274179,97.1957948 530.346643,97.3972144 C529.416149,85.749163 530.173617,78.4680595 532,67" id="Fill-65" fill="#FF3D0F"></path>
                    <path d="M244.689231,72 C234.77267,85.9572599 230.192851,95.614264 226,109.237243 C237.349615,111.754667 244.91886,111.362609 251.952304,109.40232 C252.500862,100.624351 256.302494,94.8507829 263,86.4070947 C253.40662,83.5430088 249.239283,79.746238 244.689231,72" id="Fill-67" fill="#FFE848"></path>
                    <path d="M7.10809417,408 C3.27937279,421.269421 1.57863175,432.298656 4.41320015,443.479145 C13.1223089,446.512389 19.1652801,446.663642 26.0462976,444.705524 C23.7334541,430.925112 24.431826,422.843274 29,409.798689 C19.8143551,412.455844 14.0343004,412.639801 7.10809417,408" id="Fill-69" fill="#FF3D0F"></path>
                    <path d="M1463.65901,267 C1465.51283,265.907106 1467.36277,265.308012 1470,264.904984 C1466.76939,260.707691 1464.83413,257.737635 1463.31772,254.063188 C1460.43228,253.801765 1458.93138,254.368182 1457,255.453814 C1457.96957,258.184232 1460.38962,262.44325 1463.65901,267" id="Fill-71" fill="#03E697"></path>
                    <path d="M952.828062,501 C945.036728,506.116619 935.164708,507.971914 913.021134,503.624867 C912.743164,513.562756 915.183576,522.24437 921.748572,532.693921 C938.659771,533.604928 948.801586,532.752159 964,526.408383 C957.177474,518.945606 955.162192,512.922139 952.828062,501" id="Fill-73" fill="#FF3D0F"></path>
                    <path d="M1509.82806,411 C1502.03673,416.116619 1492.16471,417.971914 1470.02113,413.624867 C1469.74316,423.562756 1472.18358,432.24437 1478.74857,442.693921 C1495.65977,443.604928 1505.80159,442.752159 1521,436.408383 C1514.17747,428.945606 1512.16219,422.922139 1509.82806,411" id="Fill-73-Copy" fill="#0264DF"></path>
                    <path d="M63.2477653,683.872557 C61.2024875,687.761882 61.7792558,691.464892 64.1926837,697 C73.785037,694.410998 79.7408862,693.91804 89.1737077,695.016522 C87.6438399,690.882658 88.0119899,687.645435 90,681.400001 C80.3912845,680.371387 72.8769336,681.372831 63.2477653,683.872557" id="Fill-75" fill="#FF3D0F"></path>
                    <path d="M1304,247.591959 C1313.89568,249.795522 1319.54917,249.862424 1329.05994,244.49777 C1328.81989,227.442104 1329.85871,217.277278 1333,200.865536 C1327.003,201.860694 1322.63251,201.258582 1319.07321,200 C1316.04367,218.941449 1311.79735,230.180878 1304,247.591959" id="Fill-77" fill="#FF3D0F"></path>
                    <path d="M915,143.043138 C906.791342,142.817566 897.838397,143.314661 889.991127,148.507012 C888.201398,154.952546 886.618177,159.230074 883,165.161803 C888.949987,163.908621 892.632697,165.897003 898.599892,172 C901.516806,162.221002 907.204356,154.050255 915,143.043138" id="Fill-79" fill="#FF3D0F"></path>
                    <path d="M308.01604,563.730159 C307.856104,567.690476 308.873883,570.178571 311.894508,573 C315.663927,572.25 318.284709,571.150794 320.294824,568.813492 C319.287949,564.492063 319.749585,561.321429 321,556 C316.49269,559.718254 313.599288,561.865079 308.01604,563.730159" id="Fill-81" fill="#03E697"></path>
                    <path d="M798.959209,117 C805.897709,106.593502 809.095701,99.3970303 812,89.2618607 C803.992783,87.4293485 798.661437,87.7465944 793.709445,89.2284664 C793.350486,95.761226 790.695011,100.056568 786,106.359742 C792.771258,108.459408 795.724506,111.260355 798.959209,117" id="Fill-83" fill="#FF3D0F"></path>
                    <path d="M1169.15053,246 C1164.9477,255.113686 1162.47082,262.872635 1163.09594,271.292531 C1168.73378,274.556216 1172.87371,275.406006 1177.84319,274.835374 C1177.8825,264.596846 1179.31752,258.849476 1184,249.990317 C1177.36747,250.778527 1173.36515,250.199685 1169.15053,246" id="Fill-85" fill="#03E697"></path>
                    <path d="M1418,586.183521 C1420.64878,585.742643 1423.06045,586.222044 1425.94971,589 C1429.11334,578.504548 1430.07869,571.330658 1431,560.672552 C1426.50182,557.449438 1423.46014,557.021402 1421.26863,557 C1422.32543,568.40717 1420.94685,575.581059 1418,586.183521" id="Fill-87" fill="#FF3D0F"></path>
                    <path d="M811,179 C807.627737,179.302418 803.980756,179.943067 801.030524,182.513621 C800.624419,185.318947 800.186463,187.197123 799,189.875115 C801.376908,189.055403 802.98142,189.715947 805.736563,192 C806.437293,187.738292 808.356337,184.013774 811,179" id="Fill-89" fill="#0264DF"></path>
                    <path d="M940.92008,37.6302013 C933.985692,39.5888286 926.309043,38.404034 911.142301,29 C908.558279,36.7995335 908.248673,44.3411228 910.558812,54.3878313 C922.712846,59.6647579 930.345833,61.7195677 943,60.7796015 C939.804704,53.0281593 939.76898,47.7118853 940.92008,37.6302013" id="Fill-91" fill="#03E697"></path>
                    <path d="M64.6428571,364 C65.9722222,359.688571 66.9543651,357.537143 70,354.82 C68.2390873,353.911429 67.3115079,353.114286 66.9890873,352 C63.4672619,354.742857 61.8799603,357.275714 60,361.745714 C61.3740079,362.915714 62.8869048,363.58 64.6428571,364" id="Fill-93" fill="#FFE848"></path>
                    <path d="M345.44017,269.403112 C348.136075,270.471205 350.373103,269.960378 354,269.010493 C351.524709,261.51696 351.233498,252.849792 351.877692,242.78946 C348.921461,243.422716 346.931521,243.122975 343.7988,242 C342.457466,252.604933 342.67808,258.65042 345.44017,269.403112" id="Fill-95" fill="#FF3D0F"></path>
                    <path d="M22,549.030913 C23.4861187,552.906281 25.343767,556.911187 28.4575395,559 C30.8176375,557.909715 32.4559064,557.364573 35,557.272816 C33.4784976,554.887144 33.4041916,552.587831 34.1790964,548 C30.5628743,549.56526 26.9289603,549.365554 22,549.030913" id="Fill-97" fill="#03E697"></path>
                    <path d="M1120,237.496351 C1112.96564,233.364689 1108.67796,231.939266 1100.17046,233.810909 C1096.37781,247.193363 1093.21994,254.878254 1087,266.934444 C1091.80668,267.616169 1095.00448,269.153147 1097.42378,271 C1104.14275,256.944085 1109.9954,249.197219 1120,237.496351" id="Fill-99" fill="#0264DF"></path>
                    <path d="M98.0135433,470 C90.6434646,474.979598 85.2346457,479.741262 82,486.439665 C85.0094488,491.550846 87.9083465,494.124941 92.0970079,496 C96.6705512,488.224261 100.355591,484.519374 108,479.950973 C102.394646,477.467341 99.4875591,475.160525 98.0135433,470" id="Fill-101" fill="#FFE848"></path>
                    <path d="M1280.07656,739.019268 C1281.24369,746.717727 1279.56856,751.358786 1276,757.848127 C1289.08613,758.389584 1302.25203,757.473585 1307.88197,755.254833 C1308.37317,749.184816 1307.32359,743.986015 1304.87598,737 C1298.53653,739.605507 1291.6597,739.536298 1280.07656,739.019268" id="Fill-103" fill="#03E697"></path>
                    <path d="M623.108114,121.396594 C619.83501,129.246563 620.297745,135.05828 625.026977,143.11581 C634.052424,144.57289 640.759953,144.406841 647.004747,141.268514 C647.904745,131.766357 651.271245,125.734626 658,116 C645.124092,119.947816 637.032605,122.010976 623.108114,121.396594" id="Fill-105" fill="#FF3D0F"></path>
                    <path d="M204.311924,289 C206.352339,275.210778 208.165185,268.252041 215,258.947523 C210.317458,256.601742 207.748616,254.384213 206.610766,251 C198.595673,260.515514 195.367265,268.835384 192,283.265868 C195.787691,286.534241 199.787523,288.176701 204.311924,289" id="Fill-107" fill="#0264DF"></path>
                    <path d="M1070,100.550381 C1072.00011,103.404657 1072.99184,106.403452 1072.08345,111 C1083.92579,109.859896 1091.29704,107.696106 1101.94347,103.89442 C1102.30183,97.2384585 1100.88925,93.5371337 1099.60167,91 C1089.4261,97.4271377 1081.80483,99.1132075 1070,100.550381" id="Fill-109" fill="#FF3D0F"></path>
                    <path d="M1402,763 C1401.24566,758.412474 1400.23048,755.828274 1397.37527,752 C1394.41432,756.43659 1392.04908,758.298129 1389,759.423285" id="Fill-111" fill="#03E697"></path>
                    <path d="M1322,480.707317 C1314.99105,474.089431 1310.42737,471.280488 1300.10965,471 C1292.13632,484.963415 1286.41456,492.707317 1276,504.504065 C1281.35456,506.617886 1284.62702,509.243902 1286.92702,512 C1298.4593,498.089431 1307.30421,491.04065 1322,480.707317" id="Fill-113" fill="#FFE848"></path>
                    <path d="M1228,355.87648 C1234.18002,359.001275 1241.21403,361.849888 1249.2134,360.76489 C1253.07488,356.559043 1255.93387,353.911647 1261,350.75529 C1255.96687,349.551928 1253.92887,346.738824 1251.73409,340 C1245.72322,346.300879 1238.22303,350.40809 1228,355.87648" id="Fill-115" fill="#0264DF"></path>
                    <path d="M175.873337,564 C179.221584,559.229808 180.714933,555.964706 182,551.390071 C177.85006,550.723082 175.118803,550.964036 172.607618,551.714835 C172.55653,554.630728 171.279323,556.600266 169,559.495207 C172.521161,560.301879 174.093108,561.503157 175.873337,564" id="Fill-117" fill="#FFE848"></path>
                    <path d="M474,138.291258 C471.109197,135.679464 469.191337,132.568292 468.670832,127 C457.179689,132.21033 450.473186,137.124568 441,144.990885 C442.705654,152.737882 445.268139,156.516365 447.346154,159 C455.53009,148.283248 462.632977,143.833034 474,138.291258" id="Fill-119" fill="#03E697"></path>
                    <path d="M1420.87356,48 C1418.47318,50.3405213 1417.71258,52.5280403 1418.09288,56.2000949 C1421.03713,58.1477725 1423.42115,59.1443549 1426.11596,58.9830823 C1427.94385,55.6666546 1430.0866,54.0084407 1434,51.5231875 C1428.84348,50.9359896 1425.67023,50.4108196 1420.87356,48" id="Fill-121" fill="#FF3D0F"></path>
                    <path d="M0,660 C0.184391879,665.638561 0.938349786,671.757167 5.09741106,676.915683 C9.91208791,677.867903 13.1246042,678.768971 17.6442541,681 C16.464146,676.97077 17.7712796,674.362001 22,670.010118 C14.6816912,668.428331 8.43285528,664.879146 0,660" id="Fill-123" fill="#03E697"></path>
                </g>
            </g>
        </g>
    </g>
</svg>