<svg viewBox="0 0 841.89 406.83" xmlns="http://www.w3.org/2000/svg" xmlns:xlink="http://www.w3.org/1999/xlink"><linearGradient id="a" gradientTransform="translate(699.78 -441.22)" gradientUnits="userSpaceOnUse" x1="16.18" x2="8.47" y1="489.7" y2="492.38"><stop offset="0" stop-color="#fff"/><stop offset=".47" stop-color="#8e8e8d"/><stop offset=".83" stop-color="#3d3d3b"/><stop offset="1" stop-color="#1d1d1b"/></linearGradient><linearGradient id="b" gradientTransform="translate(637.41 -475.88)" x1="12.64" x2="15.32" xlink:href="#a" y1="491.7" y2="499.41"/><linearGradient id="c" gradientUnits="userSpaceOnUse" x1="625.95" x2="643.7" y1="70.52" y2="65.12"><stop offset="0" stop-color="#fff"/><stop offset="1" stop-color="#1d1d1b"/></linearGradient><clipPath id="d"><path d="m-.01-682.51h841.89v1190.55h-841.89z"/></clipPath><mask id="e" height="30.82" maskUnits="userSpaceOnUse" width="16.42" x="699.78" y="35.84"><path d="m699.78 35.84h16.42v30.82h-16.42z" fill="url(#a)"/></mask><mask id="f" height="16.42" maskUnits="userSpaceOnUse" width="30.82" x="637.41" y="15.58"><path d="m637.41 15.58h30.82v16.42h-30.82z" fill="url(#b)"/></mask><mask id="g" height="59.15" maskUnits="userSpaceOnUse" width="17.53" x="633.97" y="35.84"><path d="m633.97 35.84h17.53v59.15h-17.53z" fill="url(#c)"/></mask><g clip-path="url(#d)"><path d="m507.87 291.38h.77v37.43h-.77z" fill="#1d1d1b"/><path d="m335.27 124.53v-29.08c.27-7.21 10.69-7.25 11 0v29.08zm-16 0v-29.08c.26-7.21 10.64-7.28 10.88 0v29.08zm18.11 58.62v-28.64a3.57 3.57 0 1 1 7.14 0v28.64zm-16.42 0v-28.64a3.57 3.57 0 1 1 7.14 0v28.64zm9.19 42.11q0-9.7 0-19.41a4.39 4.39 0 0 1 2.85-4.34 4.93 4.93 0 0 1 1.08-.22 4.24 4.24 0 0 1 3.74 1.72 4.62 4.62 0 0 1 .81 2.45v19.8zm-63.16-16q0-4.26 0-8.52a3.42 3.42 0 0 1 .71-2.14 1 1 0 0 1 1.18-.21c.31.18.25.18.48.47a4.68 4.68 0 0 1 .58 3v7.39zm13 0c0-2.75 0-5.5 0-8.25a5 5 0 0 1 .28-1.62c.17-.41.53-1 1-1.08 1.07-.26 1.61 1.17 1.67 2v1.49.77 6.69zm-7.58 0c0-2.72 0-5.44 0-8.16a4.55 4.55 0 0 1 .17-1.22 3.24 3.24 0 0 1 .77-1 2.42 2.42 0 0 1 1.49-.59 2.5 2.5 0 0 1 1.26.27 2.15 2.15 0 0 1 1.12 1.08 7.74 7.74 0 0 1 .27 2.9v6.69h-5.08zm-207.83 22.43c.39-1.32 1.09-3.12 2.61-3.44a2.1 2.1 0 0 1 1.77.85 4.94 4.94 0 0 1 .5.7 6.59 6.59 0 0 1 .38.75 5.93 5.93 0 0 1 .52 1.52 10.71 10.71 0 0 1 -.13 4.68c-.31 1.41-1.89 4.14-3.67 3a5.2 5.2 0 0 1 -2-3.19 8.82 8.82 0 0 1 .02-4.87zm31.32 2.49a5.94 5.94 0 0 1 -11.87 0 5.94 5.94 0 0 1 11.87 0zm13.47 0a7.58 7.58 0 0 1 1.08-4.36 3 3 0 0 1 .48-.68 2.27 2.27 0 0 1 1.28-.86 1.26 1.26 0 0 1 .91.11 3.39 3.39 0 0 1 1.57 1.6 9.64 9.64 0 0 1 1 3.75 11.28 11.28 0 0 1 -.29 2.7 6.9 6.9 0 0 1 -.77 1.94c-.36.79-1.5 1.94-2.45 1.64a3 3 0 0 1 -1.22-.81 7.4 7.4 0 0 1 -1.59-4.56zm81.72 19.36v-8a4.39 4.39 0 0 1 .45-1.6c.28-.3.45-.49.89-.45a1 1 0 0 1 .89.63l.09.09v.17l.09.18v.09l.09.18v.36l.09.18v8.2zm13.56 0v-8.74l.09-.18v-.09l.18-.35v-.09l.09-.18.36-.36h.18l.08-.09h.54l.09.09h.09l.36.36.08.18.09.09v.17l.09.18.09.09c0 .75.13.14.09.89v8zm-3.39 0h-4.26v-8l.18-.8.45-.71.71-.45.8-.09.81.09.71.45.45.71.17.8zm368.83-16.06v-13.48h8v13.47zm-529.42 20.26v.89h.8v12.22h-1.69v3.3h-1.25l.09.45.38.4.35.08.45.09.36.36.09.36v.44h.44v97h-.44v9.64h-3.41l-.27.18-.18.26.18.36.27.09v2.94l104.56.45 66.75 1.43 81.42 1.68 79.17 1.63 77 1.6 79.15 1 96.47 1.26 76.33 1.11c0-15.22.27-30.52.27-45.78h.8v-3.84h-.8a13.71 13.71 0 0 1 3.64-9.47 14.52 14.52 0 0 1 4.12-3.12 13.68 13.68 0 0 1 5-1.42l.09.81h2.5v-.81a13.3 13.3 0 0 1 5 1.41 14.69 14.69 0 0 1 5.7 5.19 14 14 0 0 1 1.19 2.31 13.75 13.75 0 0 1 .73 2.5 12.51 12.51 0 0 1 .22 2.6h-.8v3.84h.8v46l22.12.48h45.83v-146.17h-56.19v-12.67h-51.84v-4.64h.36l.44-1.51-26.94-8-26.94 8 .44 1.51h1.25v14.28h-25.43l-24-10.35v-17.84h.44l1.25-2.15v-.44h-1.24l-11-19.81-.09-1.43.39-1.44.09-.63-.17-.62-.45-.36-.27-.62v-.54l.09-.36-.27-.26h-.35l-.18.26v.36l.09.54-.27.62-.45.36-.26.62.09.63.35 1.42v1.43l-11 19.81h-1.25v.44l1.25 2.15h.44v15.52h-51.48v-37.9h3.39v-1.6l-78.39-29.53-64.05 20.34v-79.41l-6.7-1.25v-24.89l1.25-1.25v-.8h-2.58v-1.34h1.33v-.8l-4.25-1.7h-2v-14.72h1.34c.16-1.55-.63-.9-.63-2l-.09-.36v-.44l-.08-.45-.09-.62-.18-.54-.27-.36v-.8h-1.07v-1.65h1.78v-.36l-.09-.09v-.18h-.17l-.09-.18-.18-.09-.09-.08-.18-.54-.09-.27v-.27a1.69 1.69 0 0 0 -.89-1.24v-1.7h-.45v1.7a1.65 1.65 0 0 0 -.89 1.51l-.09.27v.27l-.18.27-.35.35h-.09l-.09.18-.09.09v.36h1.78v1.69h-1.07v.8l-.18.36-.17.54-.18.62-.09.45v.84l-.09.27c-.55 1.09-.68.5-.63 1.69h1.34v5.45h-2.49v9.27h-46.04l-4.19 1.7v.8h1.24v1.34h-2.49v.8l1.25 1.25v101.58h-1.25v.45l1.25.8v34.26l-19-8.12v-13.92h.45v-.8h-.45l1.7-3.39h.44l.45-.89h.36v-.81h-4.64l-7.14-17.3v-.81l-.45-.44v-1.34c1.34-.61 1.13-2-.18-2.41v-.89l.18-.36-.09-.36-.26-.08-.36.08-.09.36.18.36v.89l-.54.27-.44.53v.63l.26.62.54.36v1.34l-.45.44v.81l-7.16 17.3h-4.64v.81h.44l.36.89h.45l1.69 3.39h-.44v.8h.44v13.92l-26.57 11.46v.36h5.54v5.89h-3v.89l2.5 2.94v21.5h-35v-13.95l2.49-2.95h.45v-.89h-3.31l-7.94-19.36.09-.18v-.18l-.18-.09-.8-2v-.27l-.27-.18v-1.33h1.7v-.45h-1.7v-5.05h-.36v5.09h-1.69v.45h1.69v1.33l-.17.18v.25l-.81 2h-.09l-.17.09v.18l.08.18-7.94 19.36h-3.39v.89h.45l2.5 2.95v13.91h-66.56v-27.41h-.44l.08-.89.27-.89.63-.71.71-.45.45-.18.17-.45-.17-.44-.45-.18h.91c-.14-1 .15-1.77 1.25-1.69v-.45h-.44v-2.5h-.45l.45-.18.17-.53-.17-.45-.45-.18v-2.49l.36-.09.09-.36-.09-.27-.36-.09.18-.89-.18-.8-.36-.72-.53-.62-.81-.36-.71.36-.53.62-.42.73-.09.8.09.89-.27.09-.09.27.09.36.27.09v2.5h-2v-1.6a30 30 0 0 0 -24.45-29.44v-1.36l-3.39-.89v-.81l-1.35-.9v-.36h.45v-.44l.8-.9v-1.24h-1.25v-10.52h-1.69v10.53h-1.25v1.24l.8.9v.44h.45v.35l-1.25.89v.81l-3.39.89v1.34a29.87 29.87 0 0 0 -24.48 29.45v1.62h-2.11v-2.49l.27-.09.09-.36-.09-.27-.27-.09.09-.89-.09-.8-.45-.72-.53-.62-.71-.36-.81.36-.53.62-.36.72-.18.8.18.89-.36.09-.09.27.09.36.36.09v2.49l-.45.18-.17.45.17.53.45.18h-.36v2.5h-.44v.45c1-.18 1.33.86 1.25 1.69h.89l-.45.18-.18.44.18.45.45.18.71.45.54.71.36.89.08.89h-.44v26.5h-8v-2.94h-9.31v8z" fill="#1d1d1b" fill-rule="evenodd"/><path d="m712 290a6.57 6.57 0 1 0 6.57 6.56 6.56 6.56 0 0 0 -6.57-6.56z" fill="#1d1d1b" fill-rule="evenodd"/><path d="m712 290a6.57 6.57 0 1 0 6.57 6.56 6.56 6.56 0 0 0 -6.57-6.56z" fill="none" stroke="#1d1d1b" stroke-miterlimit="22.93" stroke-width=".57"/><g fill="#ffb600"><path d="m697.8 295.77h8.08l-7.8-2.09.41-1.55 7.82 2.1-7.01-4.05.79-1.38 7.01 4.05-5.72-5.73 1.13-1.13 5.72 5.72-4.04-7 1.38-.8 4.05 7.01-2.1-7.82 1.55-.41 2.1 7.82v-8.1h1.59v8.1l2.1-7.82 1.54.41-2.09 7.82 4.04-7.01 1.39.79-4.05 7.02 5.72-5.73 1.14 1.14-5.72 5.71 7-4.04.8 1.38-7.01 4.05 7.82-2.09.41 1.54-7.8 2.09h8.08v1.6h-8.09l7.81 2.1-.41 1.54-7.82-2.09 7.01 4.04-.8 1.39-7.01-4.05 5.73 5.72-1.14 1.14-5.71-5.72 4.04 7-1.38.8-4.05-7.01 2.09 7.82-1.54.41-2.1-7.82v8.1h-1.59v-8.1l-2.1 7.82-1.55-.41 2.1-7.82-4.05 7.01-1.38-.8 4.05-7-5.73 5.72-1.13-1.14 5.72-5.71-7 4.04-.8-1.38 7.01-4.05-7.82 2.09-.41-1.54 7.81-2.1h-8.09z"/><path d="m216.08 388.49a12.83 12.83 0 0 1 .62-3.07 12.44 12.44 0 0 0 .7-4 10 10 0 0 1 .27-1.9c.33-1.72.83-4.36.61-5.44-.08-.4.1-3.1.32-6.25.27-3.91.59-8.56.54-9.9 0-.49-.08-1-.14-1.59-.2-1.82-.44-3.93.32-5.55a27.88 27.88 0 0 0 1.18-3.6c.54-2 .9-3.34 3.43-6.49.07-.08.3-1.4.51-2.61a18.48 18.48 0 0 1 .51-2.4l1.91.72c-.09.25-.25 1.12-.41 2a11.42 11.42 0 0 1 -.92 3.54 12.51 12.51 0 0 0 -3.05 5.73 30.75 30.75 0 0 1 -1.26 3.86v.07c-.54 1.08-.33 2.91-.16 4.47.07.64.14 1.24.16 1.74.05 1.43-.27 6.15-.55 10.12-.21 3-.38 5.58-.36 5.7.3 1.48-.24 4.36-.6 6.23-.14.74-.25 1.3-.25 1.34a13.57 13.57 0 0 1 -.76 4.72 11.44 11.44 0 0 0 -.54 2.53z"/><path d="m218.41 370.73a26.05 26.05 0 0 0 -1-4.09 19.61 19.61 0 0 1 -1.11-5.3c.17-2.08.37-6.75.36-10.82a35.43 35.43 0 0 0 -.4-6.35 6.9 6.9 0 0 1 -.12-1.32 12.31 12.31 0 0 0 -1.08-5.25l1.8-1a14.12 14.12 0 0 1 1.32 6.13 7.81 7.81 0 0 0 .07.94 36.53 36.53 0 0 1 .45 6.81c0 4.16-.19 8.9-.36 11a20.23 20.23 0 0 0 1 4.56 27 27 0 0 1 1.06 4.51z"/><path d="m219.25 368.25c2.53-1.07 2.78-1.47 3.16-2.07a8.12 8.12 0 0 1 2-2.17 4.11 4.11 0 0 0 1.52-2.56c.45-1.74 1-3.72 6-6.71a23.78 23.78 0 0 0 3.59-3.34 7.14 7.14 0 0 0 1.39-1.81l1.5-.31c.15.71-.66 1.93-1.74 3.15a25.26 25.26 0 0 1 -4 3.63c-4.48 2.66-4.91 4.32-5.29 5.77a5.32 5.32 0 0 1 -2 3.37 6.62 6.62 0 0 0 -1.66 1.8c-.53.84-.89 1.4-3.86 2.67z"/><path d="m219.29 364.21a19.29 19.29 0 0 0 3.65-5.18 25.07 25.07 0 0 0 1.92-6 4.5 4.5 0 0 1 1.17-2.17c.62-.73 1.25-1.48.77-3.95a8.84 8.84 0 0 1 .13-3.16 9.87 9.87 0 0 1 1.1-3.12l1.3.8a8.77 8.77 0 0 0 -.9 2.61 7.3 7.3 0 0 0 -.13 2.58c.62 3.19-.25 4.22-1.1 5.23a3.18 3.18 0 0 0 -.84 1.48 27 27 0 0 1 -2 6.34 20.68 20.68 0 0 1 -3.94 5.59z"/><path d="m217.21 361.83a6.5 6.5 0 0 1 -4.49-3.19 18.62 18.62 0 0 1 -1.9-5.06c-.37-1.42-.67-2.81-1-4.24a59.39 59.39 0 0 0 -2.12-8l1.45-.51a61.28 61.28 0 0 1 2.17 8.23c.29 1.41.58 2.8.94 4.16a17.84 17.84 0 0 0 1.73 4.65 5 5 0 0 0 3.47 2.49z"/><path d="m218.82 368.63c-.17-.07-.48-.17-.86-.28-1.26-.4-3.16-1-3.78-1.64a4.42 4.42 0 0 0 -2.22-.66c-2.29-.32-5-.71-5.85-4.6l-1.05-2.68 1.43-.56 1.09 2.78v.07c.61 2.91 2.76 3.22 4.57 3.48a5.07 5.07 0 0 1 3.1 1.1 12.61 12.61 0 0 0 3.14 1.24l1 .32z"/><path d="m227.53 358.64c2.89-1.75 3.3-1.7 4-1.63a4.58 4.58 0 0 0 2.05-.31 15.59 15.59 0 0 1 2.8-.63c.81-.11 1-.14 3.38-1.9l.6.82c-2.62 1.92-2.82 1.95-3.84 2.09a14.11 14.11 0 0 0 -2.64.6 5.44 5.44 0 0 1 -2.45.35c-.49 0-.78-.08-3.38 1.49z"/><path d="m211.94 355.18c-5.7 0-6.45-1.63-7.52-4a11.5 11.5 0 0 0 -1.92-3.13 1.29 1.29 0 0 1 -.22-.7v-.1l1-.13v.11c0 .08-.09.07 0 .13a12.51 12.51 0 0 1 2.09 3.4c.9 2 1.54 3.38 6.59 3.37z"/><path d="m217.85 347.93a12.57 12.57 0 0 0 1.14-3.47 10.09 10.09 0 0 1 2.83-5.61.71.71 0 0 0 .09-.92 4.13 4.13 0 0 1 -.06-3.23l1 .31a3.2 3.2 0 0 0 0 2.53 1.54 1.54 0 0 1 -.29 2 9.14 9.14 0 0 0 -2.58 5.13 13.6 13.6 0 0 1 -1.23 3.72z"/><path d="m217.2 352.85a9 9 0 0 0 -2-3.53 6.46 6.46 0 0 1 -1.45-2.32 6 6 0 0 1 -.62-3.08c0-.67.06-1-2.35-3.53l-.17-.2a3.19 3.19 0 0 1 -1.3-1.78c-.15-.29-.09-.38.15-.28.28-.11 1 .24 1.88 1.34l.11.1.49.47c2.34 2.5 2.3 3 2.25 3.9a5.23 5.23 0 0 0 .54 2.63 5.74 5.74 0 0 0 1.26 2 9.75 9.75 0 0 1 2.17 3.86z"/><path d="m223.57 358.37c.6-.57 1-1 1.4-1.41a7.65 7.65 0 0 1 3.41-2.34c1.69-.68 2.26-2.59 2.82-4.42s1.08-3.58 2.61-4.39v-.17l1-.13v.15c.08.43.14.74-.41 1-1.25.57-1.73 2.18-2.23 3.84-.63 2.07-1.27 4.21-3.42 5.08a6.84 6.84 0 0 0 -3 2.09c-.36.39-.8.85-1.44 1.45z"/><path d="m212.76 365.77a8.63 8.63 0 0 1 -1.75-4.06 5.37 5.37 0 0 0 -.78-2.2l.86-.54a6.31 6.31 0 0 1 .93 2.57 7.57 7.57 0 0 0 1.57 3.63z"/><path d="m206 353.57a12.78 12.78 0 0 0 -2.17-.09c-1.78 0-3.06 0-4.27-2.1l.89-.5c.92 1.62 1.93 1.6 3.36 1.58a12.94 12.94 0 0 1 2.34.1z"/><path d="m205.26 342.59v.12h.07zm4.71 5.68c-1.91-1.94-2.37-2-2.84-2.06a3.36 3.36 0 0 1 -2-1 2.42 2.42 0 0 1 -.65-1.08 3.8 3.8 0 0 1 -.2-1.09 1.67 1.67 0 0 1 .27-1.05.89.89 0 0 1 .41-.28l.28.84.11.08a.73.73 0 0 0 -.05.38 2.56 2.56 0 0 0 .15.8 1.54 1.54 0 0 0 .32.61 2.65 2.65 0 0 0 1.46.74c.65.08 1.29.16 3.45 2.35z"/><path d="m229.81 357.45a12.34 12.34 0 0 1 3.86 1 12.08 12.08 0 0 0 2.51.79 3.37 3.37 0 0 0 .94-.13c.18-.05.31-.06.32-.07l.94.39a1.46 1.46 0 0 1 -1 .67 4 4 0 0 1 -1.4.14 12.12 12.12 0 0 1 -2.71-.85 11.47 11.47 0 0 0 -3.58-.94z"/><path d="m217.1 356.42c-.87-3.28-2-3.72-3-4.08-1.23-.46-2.22-.84-2.35-4.21 0-.34 0-.45 0-.57a3.56 3.56 0 0 1 0-.51l1-.06v.44a5.73 5.73 0 0 1 0 .66c.11 2.7.81 3 1.69 3.3 1.18.45 2.6 1 3.61 4.77z"/><path d="m224.78 340c.24-.11.55-.22.91-.35 1.59-.58 4.34-1.58 4.12-2.94l1-.16c.35 2.19-2.9 3.37-4.78 4.06l-.85.32z"/><path d="m227.28 345.24.61-.24c1.51-.58 3.78-1.44 3.86-3.25h1c-.1 2.48-2.75 3.49-4.52 4.17l-.59.22z"/><path d="m333.84 391.24a12.36 12.36 0 0 1 .62-3.07 12.14 12.14 0 0 0 .69-4 9.61 9.61 0 0 1 .28-1.91c.32-1.71.83-4.35.6-5.43-.08-.4.11-3.1.33-6.25.27-3.92.59-8.56.54-9.91 0-.48-.08-1-.14-1.58-.2-1.82-.44-3.94.32-5.55a27.92 27.92 0 0 0 1.18-3.61c.54-2 .9-3.34 3.43-6.49.06-.08.29-1.4.51-2.61a19.12 19.12 0 0 1 .51-2.41l1.91.73a18.07 18.07 0 0 0 -.41 2 11.49 11.49 0 0 1 -.93 3.53 12.78 12.78 0 0 0 -3 5.74 29.85 29.85 0 0 1 -1.25 3.85v.07c-.53 1.09-.33 2.91-.15 4.48.07.64.14 1.24.16 1.73.05 1.44-.28 6.16-.55 10.13-.21 3-.39 5.58-.36 5.7.3 1.48-.25 4.35-.6 6.22-.15.75-.25 1.31-.25 1.34a13.86 13.86 0 0 1 -.76 4.73 12.18 12.18 0 0 0 -.55 2.53z"/><path d="m336.17 373.48a25.19 25.19 0 0 0 -1-4.09 19.52 19.52 0 0 1 -1.1-5.3c.17-2.09.37-6.76.36-10.83a35.07 35.07 0 0 0 -.41-6.34 9.06 9.06 0 0 1 -.12-1.32 12.52 12.52 0 0 0 -1.07-5.26l1.8-1a14.31 14.31 0 0 1 1.37 6.16c0 .46 0 .81.06.93a36.46 36.46 0 0 1 .46 6.82c0 4.16-.19 8.9-.36 11a20 20 0 0 0 1 4.57 26.24 26.24 0 0 1 1.07 4.51z"/><path d="m337 371c2.53-1.07 2.78-1.47 3.16-2.07a8 8 0 0 1 2-2.17 4.11 4.11 0 0 0 1.52-2.56c.45-1.74 1-3.72 6-6.71a23.79 23.79 0 0 0 3.6-3.34 6.54 6.54 0 0 0 1.38-1.82l1.5-.31c.15.72-.65 1.94-1.74 3.15a25 25 0 0 1 -4 3.64c-4.48 2.66-4.91 4.32-5.29 5.77a5.32 5.32 0 0 1 -2 3.37 6.57 6.57 0 0 0 -1.67 1.8c-.53.84-.88 1.4-3.86 2.66z"/><path d="m337.05 367a19.29 19.29 0 0 0 3.65-5.18 25.67 25.67 0 0 0 1.91-6 4.58 4.58 0 0 1 1.17-2.17c.62-.73 1.25-1.48.77-3.95a8.7 8.7 0 0 1 .14-3.17 10.32 10.32 0 0 1 1.09-3.12l1.31.81a8.5 8.5 0 0 0 -.9 2.61 7.58 7.58 0 0 0 -.14 2.58c.63 3.19-.24 4.22-1.1 5.23a3.26 3.26 0 0 0 -.83 1.48 27.05 27.05 0 0 1 -2 6.34 20.46 20.46 0 0 1 -3.94 5.59z"/><path d="m335 364.58a6.5 6.5 0 0 1 -4.49-3.19 18.57 18.57 0 0 1 -1.9-5.07c-.38-1.41-.67-2.81-1-4.23a57.83 57.83 0 0 0 -2.11-8l1.44-.52a58.53 58.53 0 0 1 2.17 8.24c.3 1.41.59 2.8.95 4.16a17.83 17.83 0 0 0 1.72 4.65 5.08 5.08 0 0 0 3.48 2.49z"/><path d="m336.58 371.38c-.17-.07-.49-.17-.87-.29-1.25-.39-3.15-1-3.78-1.63a4.32 4.32 0 0 0 -2.22-.66c-2.28-.32-5-.71-5.84-4.6l-1.06-2.68 1.43-.56 1.1 2.78v.07c.62 2.91 2.76 3.22 4.58 3.47a5.16 5.16 0 0 1 3.1 1.11 12.29 12.29 0 0 0 3.14 1.24c.4.13.74.23.95.31z"/><path d="m345.28 361.39c2.9-1.75 3.31-1.71 4-1.63a4.59 4.59 0 0 0 2-.31 15.93 15.93 0 0 1 2.79-.64c.81-.11 1-.13 3.39-1.89l.6.82c-2.63 1.92-2.82 1.94-3.85 2.08a15.6 15.6 0 0 0 -2.63.61 5.26 5.26 0 0 1 -2.46.34c-.48 0-.77-.08-3.37 1.5z"/><path d="m329.7 357.92c-5.7 0-6.46-1.62-7.53-4a11.2 11.2 0 0 0 -1.92-3.14 1.41 1.41 0 0 1 -.22-.69v-.09l1-.14v.11c0 .09-.09.08 0 .14a12.2 12.2 0 0 1 2.08 3.4c.91 2 1.55 3.38 6.6 3.36z"/><path d="m335.61 350.68a12.78 12.78 0 0 0 1.14-3.47 10.06 10.06 0 0 1 2.82-5.61c.33-.35.24-.59.1-.93a4.09 4.09 0 0 1 -.07-3.22l1 .31a3.16 3.16 0 0 0 0 2.53 1.53 1.53 0 0 1 -.29 2 9.26 9.26 0 0 0 -2.59 5.13 13.33 13.33 0 0 1 -1.22 3.72z"/><path d="m335 355.6a9 9 0 0 0 -2-3.53 6.46 6.46 0 0 1 -1.45-2.32 6.22 6.22 0 0 1 -.62-3.08c.05-.67.07-1-2.34-3.53l-.18-.2c-.88-.75-1.28-1.41-1.29-1.78s-.09-.38.14-.28c.29-.12 1 .24 1.88 1.34l.11.1.5.47c2.33 2.5 2.3 3 2.24 3.9a5.18 5.18 0 0 0 .55 2.63 5.75 5.75 0 0 0 1.25 2 9.85 9.85 0 0 1 2.18 3.86z"/><path d="m341.33 361.11c.6-.56 1-1 1.39-1.4a7.69 7.69 0 0 1 3.42-2.34c1.68-.68 2.26-2.59 2.81-4.43s1.08-3.57 2.62-4.38v-.17l1-.13v.15c.08.43.13.74-.41 1-1.25.57-1.74 2.18-2.24 3.84-.62 2.07-1.27 4.21-3.41 5.08a6.84 6.84 0 0 0 -3 2.09c-.37.39-.8.85-1.45 1.45z"/><path d="m330.51 368.51a8.42 8.42 0 0 1 -1.74-4.05 5.41 5.41 0 0 0 -.79-2.2l.87-.54a6.28 6.28 0 0 1 .92 2.56 7.76 7.76 0 0 0 1.57 3.64z"/><path d="m323.77 356.32a11.89 11.89 0 0 0 -2.18-.09c-1.78 0-3 0-4.27-2.1l.9-.51c.91 1.63 1.93 1.61 3.35 1.58a15 15 0 0 1 2.34.1z"/><path d="m323 345.34v.12h.06zm4.71 5.68c-1.92-1.94-2.38-2-2.85-2.06a3.37 3.37 0 0 1 -2-1 2.34 2.34 0 0 1 -.66-1.08 4.18 4.18 0 0 1 -.2-1.09 1.58 1.58 0 0 1 .28-1.05.93.93 0 0 1 .41-.29l.28.85.1.08a.68.68 0 0 0 -.06.38 3.31 3.31 0 0 0 .15.8 1.31 1.31 0 0 0 .33.6 2.5 2.5 0 0 0 1.46.74c.65.09 1.28.17 3.45 2.36z"/><path d="m347.57 360.2a12.42 12.42 0 0 1 3.86 1 11.39 11.39 0 0 0 2.51.78 3 3 0 0 0 .94-.12l.31-.07.95.39a1.42 1.42 0 0 1 -1 .66 4.33 4.33 0 0 1 -1.4.15 12.4 12.4 0 0 1 -2.72-.85 11.39 11.39 0 0 0 -3.58-.94z"/><path d="m334.86 359.17c-.88-3.28-2-3.72-3-4.08-1.22-.47-2.21-.84-2.34-4.21a5.21 5.21 0 0 0 0-.57c0-.12 0-.26 0-.51l1-.06a2.86 2.86 0 0 0 0 .44 5.73 5.73 0 0 1 .05.66c.1 2.7.81 3 1.68 3.3 1.19.44 2.61 1 3.61 4.77z"/><path d="m342.54 342.78c.24-.11.54-.22.9-.35 1.6-.58 4.34-1.58 4.12-2.94l1-.17c.35 2.2-2.9 3.38-4.79 4.07-.35.13-.66.24-.84.32z"/><path d="m345 348 .6-.23c1.52-.58 3.79-1.44 3.86-3.25h1c-.1 2.48-2.75 3.49-4.51 4.16l-.59.23z"/><path d="m469.76 393.86a12.29 12.29 0 0 1 .62-3.06 12.46 12.46 0 0 0 .69-4 9.61 9.61 0 0 1 .28-1.91c.32-1.71.83-4.35.6-5.44-.08-.4.11-3.09.33-6.24.27-3.92.59-8.57.54-9.91 0-.48-.08-1-.14-1.58-.21-1.82-.44-3.94.32-5.55a28.43 28.43 0 0 0 1.18-3.61c.54-2 .9-3.34 3.43-6.49.06-.08.29-1.4.51-2.61a18.72 18.72 0 0 1 .51-2.41l1.91.73a18.24 18.24 0 0 0 -.41 2 11.57 11.57 0 0 1 -.93 3.54 12.73 12.73 0 0 0 -3.05 5.74 30.88 30.88 0 0 1 -1.25 3.94v.07c-.53 1.08-.33 2.91-.15 4.48.07.64.14 1.24.16 1.73.05 1.44-.28 6.15-.55 10.12-.21 3-.39 5.59-.36 5.71.3 1.47-.25 4.35-.61 6.22-.14.74-.24 1.3-.24 1.34a13.86 13.86 0 0 1 -.76 4.73 12.25 12.25 0 0 0 -.55 2.52z"/><path d="m472.09 376.1a26.58 26.58 0 0 0 -1-4.09 19.39 19.39 0 0 1 -1.1-5.29c.17-2.09.37-6.76.35-10.83a34.3 34.3 0 0 0 -.4-6.34 9.08 9.08 0 0 1 -.12-1.33 12.47 12.47 0 0 0 -1.07-5.25l1.79-1a14.16 14.16 0 0 1 1.33 6.14 8.42 8.42 0 0 0 .06.93 36.46 36.46 0 0 1 .46 6.82c0 4.15-.19 8.89-.36 11a20 20 0 0 0 1 4.56 26.11 26.11 0 0 1 1.07 4.52z"/><path d="m472.93 373.63c2.52-1.07 2.78-1.47 3.16-2.07a7.8 7.8 0 0 1 2-2.17 4.13 4.13 0 0 0 1.52-2.56c.45-1.74 1-3.73 6-6.71a23.79 23.79 0 0 0 3.6-3.34 6.7 6.7 0 0 0 1.38-1.82l1.5-.31c.15.72-.65 1.94-1.74 3.15a24.79 24.79 0 0 1 -3.95 3.63c-4.48 2.67-4.91 4.33-5.29 5.78a5.32 5.32 0 0 1 -2 3.37 6.57 6.57 0 0 0 -1.67 1.8c-.53.84-.88 1.4-3.86 2.66z"/><path d="m473 369.59a19.29 19.29 0 0 0 3.65-5.18 25.67 25.67 0 0 0 1.91-6 4.5 4.5 0 0 1 1.17-2.17c.62-.74 1.25-1.48.77-3.95a8.69 8.69 0 0 1 .14-3.17 10 10 0 0 1 1.06-3.12l1.31.81a8.4 8.4 0 0 0 -.9 2.61 7.58 7.58 0 0 0 -.11 2.58c.63 3.18-.24 4.22-1.1 5.23a3.26 3.26 0 0 0 -.83 1.48 27.05 27.05 0 0 1 -2 6.34 20.76 20.76 0 0 1 -3.94 5.59z"/><path d="m470.89 367.21a6.5 6.5 0 0 1 -4.49-3.21 19 19 0 0 1 -1.91-5.07c-.37-1.41-.66-2.81-1-4.23a57.94 57.94 0 0 0 -2.11-8l1.44-.51a58.18 58.18 0 0 1 2.17 8.24c.3 1.41.59 2.79 1 4.16a17.48 17.48 0 0 0 1.72 4.65 5 5 0 0 0 3.48 2.48z"/><path d="m472.5 374-.87-.28c-1.25-.39-3.15-1-3.78-1.63a4.32 4.32 0 0 0 -2.22-.66c-2.28-.33-5-.71-5.84-4.6l-1.06-2.68 1.43-.56 1.1 2.77v.07c.62 2.92 2.76 3.22 4.58 3.48a5.18 5.18 0 0 1 3.16 1.09 12.67 12.67 0 0 0 3.14 1.24c.4.13.74.23 1 .31z"/><path d="m481.2 364c2.89-1.75 3.31-1.71 4-1.64a4.39 4.39 0 0 0 2.06-.3 15 15 0 0 1 2.79-.64c.81-.11 1-.13 3.39-1.9l.6.83c-2.63 1.92-2.82 1.94-3.85 2.08a14.42 14.42 0 0 0 -2.63.61 5.41 5.41 0 0 1 -2.46.34c-.49 0-.77-.08-3.37 1.49z"/><path d="m465.62 360.55c-5.7 0-6.46-1.63-7.53-4a11.2 11.2 0 0 0 -1.92-3.14 1.44 1.44 0 0 1 -.22-.69v-.1l1-.14v.11c0 .08-.09.08 0 .14a12 12 0 0 1 2.09 3.39c.91 2 1.55 3.39 6.6 3.37z"/><path d="m471.53 353.31a12.78 12.78 0 0 0 1.14-3.47 10 10 0 0 1 2.82-5.61c.33-.36.24-.59.1-.93a4.09 4.09 0 0 1 -.07-3.22l1 .31a3.19 3.19 0 0 0 .05 2.53 1.53 1.53 0 0 1 -.29 2 9.23 9.23 0 0 0 -2.59 5.13 13.33 13.33 0 0 1 -1.22 3.72z"/><path d="m470.88 358.22a9 9 0 0 0 -2-3.53 6.46 6.46 0 0 1 -1.45-2.32 6.18 6.18 0 0 1 -.62-3.07c.05-.67.07-1-2.34-3.54l-.18-.19a3.22 3.22 0 0 1 -1.29-1.78c-.15-.3-.09-.38.14-.29.29-.11 1 .24 1.88 1.35l.11.1c.18.15.49.46.5.47 2.33 2.49 2.3 3 2.24 3.9a5.18 5.18 0 0 0 .55 2.63 5.55 5.55 0 0 0 1.25 2 9.94 9.94 0 0 1 2.18 3.86z"/><path d="m477.25 363.74c.6-.56 1-1 1.39-1.41a7.63 7.63 0 0 1 3.42-2.33c1.68-.68 2.26-2.59 2.81-4.43s1.08-3.58 2.62-4.38v-.18l1-.12v.15c.08.42.13.74-.41 1-1.25.57-1.74 2.17-2.24 3.84-.62 2.06-1.27 4.21-3.41 5.08a6.69 6.69 0 0 0 -3.05 2.09c-.37.38-.81.85-1.45 1.45z"/><path d="m466.43 371.14a8.42 8.42 0 0 1 -1.74-4.05 5.41 5.41 0 0 0 -.79-2.2l.87-.55a6.32 6.32 0 0 1 .92 2.57 7.78 7.78 0 0 0 1.57 3.63z"/><path d="m459.69 358.94a14 14 0 0 0 -2.18-.09c-1.78 0-3.05.06-4.27-2.1l.9-.5c.91 1.63 1.93 1.61 3.35 1.58a15 15 0 0 1 2.34.1z"/><path d="m458.94 348v.13h.06zm4.71 5.68c-1.92-1.94-2.38-2-2.85-2.06a3.4 3.4 0 0 1 -2-.95 2.34 2.34 0 0 1 -.66-1.08 4.26 4.26 0 0 1 -.2-1.09 1.58 1.58 0 0 1 .28-1 .86.86 0 0 1 .41-.29l.28.84.1.09a.66.66 0 0 0 -.06.38 3.31 3.31 0 0 0 .15.8 1.37 1.37 0 0 0 .33.6 2.48 2.48 0 0 0 1.46.74c.65.08 1.28.17 3.45 2.36z"/><path d="m483.49 362.83a12.56 12.56 0 0 1 3.86 1 10.82 10.82 0 0 0 2.51.79 2.77 2.77 0 0 0 .94-.13 1.38 1.38 0 0 0 .31-.07l.95.4a1.45 1.45 0 0 1 -1 .66 4 4 0 0 1 -1.4.14 12.47 12.47 0 0 1 -2.72-.84 11.39 11.39 0 0 0 -3.58-.94z"/><path d="m470.78 361.8c-.88-3.28-2-3.72-3-4.08-1.23-.47-2.21-.84-2.34-4.21a4.94 4.94 0 0 0 -.05-.57c0-.13 0-.26 0-.51l1-.06a2.69 2.69 0 0 0 0 .43 6 6 0 0 1 .05.67c.1 2.7.81 3 1.68 3.29 1.19.45 2.6 1 3.61 4.78z"/><path d="m478.46 345.4.9-.34c1.6-.58 4.34-1.59 4.12-2.94l1-.17c.36 2.19-2.89 3.38-4.78 4.07-.35.13-.66.24-.84.32z"/><path d="m481 350.61.6-.23c1.52-.58 3.79-1.45 3.86-3.25h1c-.1 2.48-2.75 3.49-4.51 4.16l-.59.23z"/><path d="m511.4 394.41a12.74 12.74 0 0 1 .62-3.07 12.49 12.49 0 0 0 .7-4 10.16 10.16 0 0 1 .27-1.91c.33-1.71.83-4.35.61-5.44-.08-.39.1-3.09.32-6.24.27-3.92.59-8.56.54-9.91 0-.48-.07-1-.14-1.58-.2-1.82-.44-3.94.33-5.55a27.57 27.57 0 0 0 1.17-3.61c.54-2 .9-3.34 3.43-6.49.07-.08.3-1.4.51-2.61a18.72 18.72 0 0 1 .51-2.41l1.91.73c-.09.25-.24 1.11-.41 2a11.34 11.34 0 0 1 -.92 3.53c-2.27 2.82-2.58 4-3.05 5.74a30.19 30.19 0 0 1 -1.26 3.85v.07c-.54 1.09-.33 2.91-.16 4.48.07.64.14 1.24.16 1.73 0 1.44-.27 6.15-.55 10.13-.21 3-.38 5.58-.36 5.7.3 1.48-.24 4.35-.6 6.22-.14.75-.25 1.31-.25 1.34a13.62 13.62 0 0 1 -.76 4.73 11.49 11.49 0 0 0 -.54 2.52z"/><path d="m513.74 376.64a28.12 28.12 0 0 0 -1-4.09 19.48 19.48 0 0 1 -1.11-5.29c.17-2.09.38-6.76.36-10.83a35.3 35.3 0 0 0 -.4-6.34 6.9 6.9 0 0 1 -.12-1.32 12.38 12.38 0 0 0 -1.08-5.26l1.8-1a14.13 14.13 0 0 1 1.32 6.14 7.57 7.57 0 0 0 .07.93 36.66 36.66 0 0 1 .45 6.82c0 4.15-.19 8.9-.36 11a20 20 0 0 0 1 4.56 27.13 27.13 0 0 1 1.06 4.52z"/><path d="m514.57 374.17c2.53-1.07 2.78-1.47 3.16-2.07a8 8 0 0 1 2-2.17 4.06 4.06 0 0 0 1.52-2.56c.45-1.74 1-3.73 6-6.71a24.33 24.33 0 0 0 3.59-3.34 6.93 6.93 0 0 0 1.39-1.82l1.5-.31c.15.72-.66 1.94-1.74 3.15a25.44 25.44 0 0 1 -4 3.64c-4.48 2.66-4.91 4.32-5.28 5.77a5.39 5.39 0 0 1 -2 3.37 6.47 6.47 0 0 0 -1.66 1.8c-.53.84-.89 1.4-3.86 2.66z"/><path d="m514.61 370.13a19.29 19.29 0 0 0 3.65-5.18 25.22 25.22 0 0 0 1.92-6 4.5 4.5 0 0 1 1.17-2.17c.62-.73 1.25-1.48.77-3.95a8.9 8.9 0 0 1 .13-3.17 10 10 0 0 1 1.1-3.12l1.3.81a8.67 8.67 0 0 0 -.9 2.61 7.3 7.3 0 0 0 -.13 2.58c.62 3.19-.25 4.22-1.1 5.23a3.18 3.18 0 0 0 -.84 1.48 27 27 0 0 1 -2 6.34 20.83 20.83 0 0 1 -3.94 5.59z"/><path d="m512.54 367.75a6.49 6.49 0 0 1 -4.5-3.19 18.9 18.9 0 0 1 -1.9-5.07c-.37-1.41-.67-2.81-1-4.23a59.39 59.39 0 0 0 -2.12-8l1.45-.52a61 61 0 0 1 2.17 8.24c.29 1.41.58 2.79.94 4.16a17.84 17.84 0 0 0 1.73 4.65 5.09 5.09 0 0 0 3.47 2.49z"/><path d="m514.14 374.54-.86-.28a11.79 11.79 0 0 1 -3.78-1.63 4.32 4.32 0 0 0 -2.22-.66c-2.29-.32-5-.71-5.85-4.6l-1.05-2.68 1.43-.56 1.09 2.78v.07c.61 2.91 2.76 3.21 4.57 3.47a5.13 5.13 0 0 1 3.1 1.11 12.94 12.94 0 0 0 3.15 1.24c.4.13.73.23.94.31z"/><path d="m522.85 364.56c2.89-1.75 3.3-1.71 4-1.64a4.35 4.35 0 0 0 2-.3 16.17 16.17 0 0 1 2.8-.64c.81-.11 1-.13 3.38-1.9l.6.83c-2.62 1.92-2.82 1.94-3.84 2.08a15.42 15.42 0 0 0 -2.64.61 5.22 5.22 0 0 1 -2.45.34c-.49-.05-.78-.08-3.38 1.5z"/><path d="m507.26 361.09c-5.7 0-6.45-1.63-7.52-4a11.69 11.69 0 0 0 -1.92-3.14 1.23 1.23 0 0 1 -.22-.69v-.1l1-.14v.11c0 .08-.09.08 0 .14a12.51 12.51 0 0 1 2.09 3.4c.9 2 1.54 3.38 6.59 3.36z"/><path d="m513.17 353.85a12.78 12.78 0 0 0 1.14-3.47 10.09 10.09 0 0 1 2.83-5.61c.32-.36.23-.59.09-.93a4.1 4.1 0 0 1 -.06-3.22l1 .31a3.2 3.2 0 0 0 0 2.53 1.53 1.53 0 0 1 -.29 2 9.17 9.17 0 0 0 -2.58 5.13 13.39 13.39 0 0 1 -1.23 3.72z"/><path d="m512.52 358.76a8.92 8.92 0 0 0 -2-3.52 6.55 6.55 0 0 1 -1.45-2.32 6 6 0 0 1 -.62-3.08c0-.67.06-1-2.35-3.54l-.17-.19a3.23 3.23 0 0 1 -1.3-1.78c-.15-.29-.09-.38.15-.29.28-.11 1 .24 1.88 1.35l.11.1.49.47c2.34 2.49 2.31 3 2.25 3.9a5.24 5.24 0 0 0 .54 2.63 5.74 5.74 0 0 0 1.26 2 9.75 9.75 0 0 1 2.17 3.86z"/><path d="m518.89 364.28c.6-.56 1-1 1.4-1.4a7.57 7.57 0 0 1 3.41-2.34c1.69-.68 2.26-2.59 2.82-4.43s1.08-3.57 2.61-4.38v-.18l1-.12v.15c.08.43.14.74-.41 1-1.25.57-1.73 2.17-2.23 3.84-.63 2.07-1.27 4.21-3.42 5.08a6.84 6.84 0 0 0 -3.05 2.09c-.36.39-.8.85-1.44 1.45z"/><path d="m508.08 371.68a8.56 8.56 0 0 1 -1.75-4.05 5.37 5.37 0 0 0 -.78-2.2l.86-.54a6.32 6.32 0 0 1 .93 2.56 7.55 7.55 0 0 0 1.57 3.64z"/><path d="m501.33 359.49a11.82 11.82 0 0 0 -2.17-.09c-1.78 0-3.06.05-4.27-2.11l.89-.5c.92 1.63 1.93 1.61 3.36 1.58a15.07 15.07 0 0 1 2.34.1z"/><path d="m500.58 348.5v.13h.07zm4.71 5.68c-1.91-1.93-2.37-2-2.84-2.05a3.43 3.43 0 0 1 -2-1 2.42 2.42 0 0 1 -.65-1.08 3.8 3.8 0 0 1 -.2-1.09 1.63 1.63 0 0 1 .27-1.05 1 1 0 0 1 .41-.29l.28.84.11.09a.71.71 0 0 0 -.05.38 2.56 2.56 0 0 0 .15.8 1.31 1.31 0 0 0 .33.6 2.46 2.46 0 0 0 1.45.74c.65.09 1.29.17 3.45 2.36z"/><path d="m525.13 363.37a12.34 12.34 0 0 1 3.86 1 11.56 11.56 0 0 0 2.51.78 2.93 2.93 0 0 0 .94-.12c.18-.05.31-.06.32-.07l.94.39a1.42 1.42 0 0 1 -1 .66 4.3 4.3 0 0 1 -1.4.15 12.66 12.66 0 0 1 -2.71-.85 11.47 11.47 0 0 0 -3.58-.94z"/><path d="m512.42 362.34c-.87-3.28-2-3.72-3-4.08-1.23-.47-2.22-.84-2.35-4.21 0-.34 0-.45 0-.57a3.92 3.92 0 0 1 -.07-.48l1-.06v.44s0 .31.06.66c.1 2.7.8 3 1.68 3.29 1.18.45 2.6 1 3.61 4.78z"/><path d="m520.1 346c.24-.11.55-.22.91-.35 1.59-.58 4.34-1.59 4.12-2.94l1-.17c.35 2.2-2.9 3.38-4.78 4.07l-.85.32z"/><path d="m522.6 351.15.61-.23c1.51-.58 3.79-1.45 3.86-3.25h1c-.1 2.48-2.75 3.49-4.52 4.16l-.59.23z"/><path d="m550.76 394.93a12.83 12.83 0 0 1 .62-3.07 12.14 12.14 0 0 0 .69-4 11.47 11.47 0 0 1 .28-1.91c.33-1.71.83-4.35.61-5.43-.09-.4.1-3.1.32-6.25.27-3.92.59-8.56.54-9.9 0-.49-.08-1-.14-1.59-.2-1.82-.44-3.94.32-5.55a27.92 27.92 0 0 0 1.18-3.61c.54-2 .9-3.34 3.43-6.49.06-.08.3-1.4.51-2.61a19.12 19.12 0 0 1 .51-2.41l1.91.73a18.07 18.07 0 0 0 -.41 2 11.49 11.49 0 0 1 -.93 3.53 12.63 12.63 0 0 0 -3 5.74 30.19 30.19 0 0 1 -1.3 3.89v.07c-.54 1.09-.33 2.91-.16 4.48.07.64.14 1.24.16 1.74 0 1.43-.27 6.15-.55 10.12-.21 3-.39 5.58-.36 5.7.3 1.48-.25 4.36-.6 6.23-.14.74-.25 1.3-.25 1.33a13.62 13.62 0 0 1 -.76 4.73 11.44 11.44 0 0 0 -.54 2.53z"/><path d="m553.09 377.17a26.05 26.05 0 0 0 -1-4.09 19.61 19.61 0 0 1 -1.11-5.3c.17-2.09.37-6.76.36-10.82a35.35 35.35 0 0 0 -.4-6.35 6.9 6.9 0 0 1 -.12-1.32 12.7 12.7 0 0 0 -1.08-5.26l1.8-1a14.16 14.16 0 0 1 1.32 6.14 7.57 7.57 0 0 0 .07.93 36.66 36.66 0 0 1 .45 6.82c0 4.16-.19 8.9-.36 11a20.64 20.64 0 0 0 1 4.56 26.24 26.24 0 0 1 1.07 4.51z"/><path d="m553.93 374.69c2.53-1.07 2.78-1.47 3.16-2.07a8 8 0 0 1 2-2.17 4.11 4.11 0 0 0 1.52-2.56c.45-1.74 1-3.72 6-6.71a23.79 23.79 0 0 0 3.6-3.34 7.14 7.14 0 0 0 1.39-1.81l1.5-.31c.14.71-.66 1.93-1.75 3.14a24.54 24.54 0 0 1 -4 3.64c-4.48 2.66-4.91 4.32-5.29 5.77a5.32 5.32 0 0 1 -2 3.37 6.31 6.31 0 0 0 -1.66 1.8c-.54.84-.89 1.4-3.87 2.66z"/><path d="m554 370.65a19.29 19.29 0 0 0 3.65-5.18 25.68 25.68 0 0 0 1.92-6 4.42 4.42 0 0 1 1.17-2.17c.61-.73 1.24-1.48.76-3.95a8.92 8.92 0 0 1 .14-3.17 10.05 10.05 0 0 1 1.1-3.12l1.3.81a8.77 8.77 0 0 0 -.9 2.61 7.3 7.3 0 0 0 -.13 2.58c.62 3.19-.25 4.22-1.1 5.23a3.18 3.18 0 0 0 -.84 1.48 27.05 27.05 0 0 1 -2 6.34 20.63 20.63 0 0 1 -3.93 5.59z"/><path d="m551.89 368.27a6.5 6.5 0 0 1 -4.49-3.19 18.62 18.62 0 0 1 -1.9-5.06c-.38-1.42-.67-2.81-1-4.24a57.83 57.83 0 0 0 -2.11-8l1.44-.52a58.53 58.53 0 0 1 2.17 8.24c.3 1.41.59 2.8 1 4.16a17.49 17.49 0 0 0 1.73 4.65 5 5 0 0 0 3.47 2.49z"/><path d="m553.5 375.07c-.17-.07-.49-.17-.86-.29-1.26-.39-3.16-1-3.79-1.63a4.25 4.25 0 0 0 -2.21-.66c-2.29-.32-5-.71-5.85-4.6l-1-2.68 1.43-.56 1.09 2.78v.07c.62 2.91 2.77 3.22 4.58 3.47a5.16 5.16 0 0 1 3.1 1.11 12.45 12.45 0 0 0 3.14 1.24c.4.13.74.23.95.31z"/><path d="m562.2 365.08c2.9-1.75 3.31-1.71 4-1.63a4.59 4.59 0 0 0 2-.31 16 16 0 0 1 2.8-.64c.8-.11 1-.13 3.38-1.89l.6.82c-2.63 1.92-2.82 1.95-3.84 2.09a14.11 14.11 0 0 0 -2.64.6 5.26 5.26 0 0 1 -2.46.34c-.48 0-.77-.08-3.37 1.5z"/><path d="m546.62 361.61c-5.7 0-6.46-1.62-7.52-4a11.69 11.69 0 0 0 -1.92-3.14 1.23 1.23 0 0 1 -.22-.69v-.1l1-.14v.11c0 .09-.09.08 0 .14a12.51 12.51 0 0 1 2.09 3.4c.9 2 1.54 3.38 6.59 3.36z"/><path d="m552.53 354.37a12.78 12.78 0 0 0 1.14-3.47 10.06 10.06 0 0 1 2.82-5.61c.33-.35.24-.59.1-.93a4.1 4.1 0 0 1 -.06-3.22l1 .31a3.2 3.2 0 0 0 0 2.53 1.54 1.54 0 0 1 -.29 2 9.12 9.12 0 0 0 -2.58 5.12 13.89 13.89 0 0 1 -1.23 3.73z"/><path d="m551.88 359.29a8.83 8.83 0 0 0 -2-3.53 6.61 6.61 0 0 1 -1.44-2.32 6 6 0 0 1 -.62-3.08c0-.67.06-1-2.35-3.53l-.18-.2a3.21 3.21 0 0 1 -1.29-1.78c-.15-.29-.09-.38.14-.28.29-.12 1 .24 1.89 1.34l.11.1.49.47c2.33 2.5 2.3 3 2.25 3.9a5.24 5.24 0 0 0 .54 2.63 5.6 5.6 0 0 0 1.26 2 9.88 9.88 0 0 1 2.17 3.86z"/><path d="m558.25 364.81c.6-.57 1-1 1.4-1.41a7.59 7.59 0 0 1 3.41-2.34c1.68-.68 2.26-2.59 2.81-4.43s1.08-3.57 2.62-4.38v-.17l1-.13v.15c.08.43.14.74-.41 1-1.25.57-1.73 2.18-2.24 3.84-.62 2.07-1.27 4.21-3.41 5.08a6.84 6.84 0 0 0 -3.05 2.09c-.37.39-.8.85-1.44 1.45z"/><path d="m547.43 372.2a8.42 8.42 0 0 1 -1.74-4.05 5.41 5.41 0 0 0 -.79-2.2l.87-.54a6.14 6.14 0 0 1 .92 2.56 7.7 7.7 0 0 0 1.58 3.64z"/><path d="m540.69 360a12.78 12.78 0 0 0 -2.17-.09c-1.79 0-3.06.05-4.27-2.1l.89-.5c.91 1.62 1.93 1.6 3.36 1.58a12.94 12.94 0 0 1 2.34.1z"/><path d="m539.94 349v.12h.06zm4.71 5.68c-1.92-1.94-2.38-2-2.85-2.06a3.37 3.37 0 0 1 -2-1 2.43 2.43 0 0 1 -.66-1.08 4.18 4.18 0 0 1 -.2-1.09 1.63 1.63 0 0 1 .28-1 .93.93 0 0 1 .41-.29l.28.85.1.08a.71.71 0 0 0 0 .38 2.87 2.87 0 0 0 .14.8 1.41 1.41 0 0 0 .33.6 2.5 2.5 0 0 0 1.46.74c.65.09 1.28.17 3.45 2.36z"/><path d="m564.49 363.89a12.42 12.42 0 0 1 3.86 1 11.56 11.56 0 0 0 2.51.78 3 3 0 0 0 .94-.12l.31-.07.95.39a1.42 1.42 0 0 1 -1 .66 4 4 0 0 1 -1.4.15 12.4 12.4 0 0 1 -2.72-.85 11.39 11.39 0 0 0 -3.58-.94z"/><path d="m551.78 362.86c-.88-3.28-2-3.72-3-4.08-1.22-.46-2.21-.84-2.34-4.21 0-.34 0-.45 0-.57a3.73 3.73 0 0 1 0-.51l1-.06a2.86 2.86 0 0 0 0 .44 5.73 5.73 0 0 1 .05.66c.11 2.7.81 3 1.68 3.3 1.19.44 2.61 1 3.62 4.77z"/><path d="m559.46 346.47c.24-.11.55-.22.9-.35 1.6-.58 4.35-1.58 4.13-2.94l1-.17c.35 2.2-2.9 3.38-4.78 4.07-.36.13-.67.24-.85.32z"/><path d="m562 351.68.61-.24c1.51-.58 3.78-1.44 3.86-3.25h1c-.1 2.48-2.76 3.49-4.52 4.16l-.59.23z"/><path d="m598.11 395.23a12.36 12.36 0 0 1 .62-3.07 12.14 12.14 0 0 0 .69-4 9.61 9.61 0 0 1 .28-1.91c.32-1.71.83-4.35.6-5.43-.08-.4.11-3.1.33-6.25.27-3.92.59-8.56.54-9.9 0-.49-.08-1-.14-1.59-.2-1.82-.44-3.93.32-5.55a27.88 27.88 0 0 0 1.18-3.6c.54-2 .9-3.34 3.43-6.49.06-.08.3-1.4.51-2.61a19.12 19.12 0 0 1 .51-2.41l1.91.73a18.07 18.07 0 0 0 -.41 2 11.66 11.66 0 0 1 -.93 3.54 12.56 12.56 0 0 0 -3 5.73 31.89 31.89 0 0 1 -1.26 3.85v.07c-.54 1.09-.34 2.91-.16 4.48.07.64.14 1.24.16 1.74 0 1.43-.28 6.15-.55 10.12-.21 3-.39 5.58-.36 5.7.3 1.48-.25 4.36-.6 6.22-.15.75-.25 1.31-.25 1.34a13.62 13.62 0 0 1 -.76 4.73 12.18 12.18 0 0 0 -.55 2.53z"/><path d="m600.44 377.47a26.05 26.05 0 0 0 -1-4.09 19.61 19.61 0 0 1 -1.11-5.3c.17-2.09.37-6.76.36-10.82a35.43 35.43 0 0 0 -.4-6.35 7.65 7.65 0 0 1 -.13-1.32 12.52 12.52 0 0 0 -1.07-5.26l1.8-1a14.31 14.31 0 0 1 1.32 6.14c0 .46 0 .82.06.93a36.54 36.54 0 0 1 .46 6.82c0 4.16-.19 8.9-.36 11a20.07 20.07 0 0 0 1 4.56 26.24 26.24 0 0 1 1.07 4.51z"/><path d="m601.28 375c2.53-1.07 2.78-1.47 3.16-2.07a8 8 0 0 1 2-2.17 4.11 4.11 0 0 0 1.52-2.56c.45-1.74 1-3.72 6-6.71a23.26 23.26 0 0 0 3.6-3.34 6.73 6.73 0 0 0 1.38-1.81l1.51-.31c.14.71-.66 1.93-1.75 3.15a25.29 25.29 0 0 1 -3.95 3.63c-4.48 2.66-4.91 4.32-5.29 5.77a5.32 5.32 0 0 1 -2 3.37 6.31 6.31 0 0 0 -1.66 1.8c-.54.84-.89 1.4-3.87 2.66z"/><path d="m601.32 371a19.29 19.29 0 0 0 3.65-5.18 26.16 26.16 0 0 0 1.92-6 4.49 4.49 0 0 1 1.16-2.17c.62-.73 1.25-1.48.77-3.95a8.64 8.64 0 0 1 .14-3.16 10.29 10.29 0 0 1 1.09-3.13l1.31.81a8.77 8.77 0 0 0 -.9 2.61 7.3 7.3 0 0 0 -.13 2.58c.62 3.19-.25 4.22-1.11 5.23a3.26 3.26 0 0 0 -.83 1.48 27.05 27.05 0 0 1 -2 6.34 20.46 20.46 0 0 1 -3.94 5.59z"/><path d="m599.24 368.57a6.5 6.5 0 0 1 -4.49-3.19 18.62 18.62 0 0 1 -1.9-5.06c-.38-1.42-.67-2.81-1-4.24a57.83 57.83 0 0 0 -2.11-8l1.44-.52a58.53 58.53 0 0 1 2.17 8.24c.3 1.41.59 2.8 1 4.16a17.83 17.83 0 0 0 1.72 4.65 5.08 5.08 0 0 0 3.48 2.49z"/><path d="m600.85 375.37c-.17-.07-.49-.17-.86-.29-1.26-.39-3.16-1-3.79-1.63a4.29 4.29 0 0 0 -2.22-.66c-2.28-.32-5-.71-5.84-4.6l-1.06-2.68 1.43-.56 1.1 2.78v.07c.62 2.91 2.76 3.22 4.58 3.47a5.16 5.16 0 0 1 3.1 1.11 12.45 12.45 0 0 0 3.14 1.24c.4.13.74.23.95.31z"/><path d="m609.55 365.38c2.9-1.75 3.31-1.71 4-1.63a4.59 4.59 0 0 0 2.05-.31 17 17 0 0 1 2.79-.64c.81-.11 1-.13 3.39-1.89l.6.82c-2.63 1.92-2.82 1.95-3.85 2.09a14.24 14.24 0 0 0 -2.63.6 5.26 5.26 0 0 1 -2.46.34c-.48-.05-.77-.08-3.37 1.5z"/><path d="m594 361.91c-5.7 0-6.46-1.62-7.52-4a11.5 11.5 0 0 0 -1.93-3.14 1.41 1.41 0 0 1 -.22-.69v-.08l1-.14v.12c0 .08-.09.07 0 .13a12.2 12.2 0 0 1 2.08 3.4c.91 2 1.55 3.38 6.6 3.36z"/><path d="m599.88 354.67a12.68 12.68 0 0 0 1.12-3.47 10.06 10.06 0 0 1 2.82-5.61c.33-.35.24-.59.1-.93a4.09 4.09 0 0 1 -.07-3.22l1 .31a3.16 3.16 0 0 0 0 2.53 1.54 1.54 0 0 1 -.29 2 9.12 9.12 0 0 0 -2.58 5.12 13.89 13.89 0 0 1 -1.23 3.73z"/><path d="m599.23 359.59a9 9 0 0 0 -2-3.53 6.6 6.6 0 0 1 -1.45-2.32 6 6 0 0 1 -.61-3.08c0-.67.06-1-2.35-3.53l-.18-.2a3.16 3.16 0 0 1 -1.29-1.78c-.15-.29-.09-.38.14-.28.29-.12 1 .24 1.88 1.34l.11.1.5.47c2.33 2.5 2.3 3 2.24 3.9a5.3 5.3 0 0 0 .55 2.63 5.6 5.6 0 0 0 1.26 2 10 10 0 0 1 2.17 3.86z"/><path d="m605.6 365.11c.6-.57 1-1 1.39-1.41a7.69 7.69 0 0 1 3.42-2.34c1.68-.68 2.26-2.59 2.81-4.43s1.08-3.57 2.62-4.38v-.17l1-.13v.15c.08.43.13.74-.41 1-1.25.57-1.74 2.18-2.24 3.84-.62 2.07-1.27 4.21-3.41 5.08a6.84 6.84 0 0 0 -3 2.09c-.37.39-.8.85-1.45 1.45z"/><path d="m594.78 372.5a8.42 8.42 0 0 1 -1.74-4.05 5.41 5.41 0 0 0 -.79-2.2l.87-.54a6.14 6.14 0 0 1 .92 2.56 7.76 7.76 0 0 0 1.57 3.64z"/><path d="m588 360.31a12.85 12.85 0 0 0 -2.18-.09c-1.78 0-3.05 0-4.27-2.1l.9-.5c.91 1.62 1.93 1.6 3.35 1.58a12.91 12.91 0 0 1 2.34.1z"/><path d="m587.29 349.33v.12h.06zm4.71 5.67c-1.92-1.94-2.38-2-2.85-2.06a3.37 3.37 0 0 1 -2-1 2.34 2.34 0 0 1 -.66-1.08 4.18 4.18 0 0 1 -.2-1.09 1.59 1.59 0 0 1 .28-1.05.93.93 0 0 1 .41-.29l.28.85.1.08a.68.68 0 0 0 -.06.38 3.31 3.31 0 0 0 .15.8 1.41 1.41 0 0 0 .33.6 2.5 2.5 0 0 0 1.46.74c.65.09 1.28.17 3.45 2.36z"/><path d="m611.84 364.19a12.42 12.42 0 0 1 3.86 1 11.39 11.39 0 0 0 2.51.78 3 3 0 0 0 .94-.12l.31-.07.95.39a1.46 1.46 0 0 1 -1 .67 4.26 4.26 0 0 1 -1.4.14 12.4 12.4 0 0 1 -2.72-.85 11.39 11.39 0 0 0 -3.58-.94z"/><path d="m599.13 363.16c-.88-3.28-2-3.72-3-4.08-1.22-.46-2.21-.84-2.34-4.21 0-.34 0-.45 0-.57a3.73 3.73 0 0 1 0-.51l1-.06a2.86 2.86 0 0 0 0 .44 5.73 5.73 0 0 1 .05.66c.11 2.7.81 3 1.68 3.3 1.19.44 2.61 1 3.62 4.77z"/><path d="m606.81 346.77c.24-.11.54-.22.9-.35 1.6-.58 4.34-1.58 4.12-2.94l1-.16c.35 2.19-2.9 3.37-4.79 4.06-.35.13-.66.24-.84.32z"/><path d="m609.31 352 .6-.24c1.52-.58 3.79-1.44 3.87-3.25h1c-.11 2.48-2.76 3.49-4.52 4.16l-.59.23z"/><path d="m127 387.13a12.76 12.76 0 0 1 .62-3.06 12.24 12.24 0 0 0 .69-4 11.25 11.25 0 0 1 .28-1.9c.33-1.72.83-4.36.61-5.44-.09-.4.1-3.09.32-6.25.27-3.91.59-8.56.54-9.9 0-.49-.08-1-.14-1.59-.2-1.81-.44-3.93.32-5.54a28.43 28.43 0 0 0 1.18-3.61c.54-2 .9-3.34 3.43-6.49.06-.08.3-1.4.51-2.61a18.48 18.48 0 0 1 .51-2.4l1.91.72a18.59 18.59 0 0 0 -.41 2 11.66 11.66 0 0 1 -.93 3.54 12.61 12.61 0 0 0 -3 5.73 30.75 30.75 0 0 1 -1.26 3.86v.07c-.54 1.08-.33 2.91-.16 4.47.07.64.14 1.24.16 1.74 0 1.43-.27 6.15-.55 10.12-.21 3-.39 5.59-.36 5.7.3 1.48-.25 4.36-.6 6.23-.14.74-.25 1.3-.25 1.34a13.57 13.57 0 0 1 -.76 4.72 11.44 11.44 0 0 0 -.54 2.53z"/><path d="m129.37 369.37a26.05 26.05 0 0 0 -1-4.09 19.61 19.61 0 0 1 -1.11-5.3c.17-2.08.37-6.75.36-10.82a35.43 35.43 0 0 0 -.4-6.35 6.9 6.9 0 0 1 -.12-1.32 12.65 12.65 0 0 0 -1.08-5.25l1.8-1a14.12 14.12 0 0 1 1.32 6.13 7.81 7.81 0 0 0 .07.94 36.6 36.6 0 0 1 .45 6.81c0 4.16-.19 8.9-.36 11a20.64 20.64 0 0 0 1 4.56 26.11 26.11 0 0 1 1.07 4.52z"/><path d="m130.21 366.89c2.53-1.07 2.78-1.47 3.16-2.07a8 8 0 0 1 2-2.17 4.09 4.09 0 0 0 1.52-2.55c.45-1.75 1-3.73 6-6.72a23.59 23.59 0 0 0 3.6-3.33 7.29 7.29 0 0 0 1.39-1.82l1.5-.31c.15.71-.66 1.93-1.75 3.15a24.85 24.85 0 0 1 -4 3.63c-4.48 2.66-4.91 4.32-5.29 5.78a5.37 5.37 0 0 1 -2 3.37 6.18 6.18 0 0 0 -1.66 1.8c-.53.84-.89 1.4-3.87 2.66z"/><path d="m130.25 362.85a19.29 19.29 0 0 0 3.65-5.18 25.53 25.53 0 0 0 1.92-6 4.46 4.46 0 0 1 1.17-2.17c.61-.73 1.24-1.48.76-3.95a8.87 8.87 0 0 1 .14-3.16 9.87 9.87 0 0 1 1.1-3.12l1.3.8a8.77 8.77 0 0 0 -.9 2.61 7.3 7.3 0 0 0 -.13 2.58c.62 3.19-.25 4.22-1.1 5.24a3.09 3.09 0 0 0 -.84 1.48 27.36 27.36 0 0 1 -2 6.34 20.52 20.52 0 0 1 -3.93 5.58z"/><path d="m128.17 360.48a6.51 6.51 0 0 1 -4.49-3.2 18.62 18.62 0 0 1 -1.9-5.06c-.38-1.42-.67-2.81-1-4.24a57.83 57.83 0 0 0 -2.11-8l1.44-.51a58.42 58.42 0 0 1 2.17 8.23c.3 1.42.59 2.8 1 4.16a17.36 17.36 0 0 0 1.73 4.65 5 5 0 0 0 3.47 2.49z"/><path d="m129.78 367.27c-.17-.07-.49-.16-.86-.28-1.26-.4-3.16-1-3.79-1.64a4.26 4.26 0 0 0 -2.21-.65c-2.29-.33-5-.71-5.85-4.61l-1-2.68 1.43-.56 1.09 2.78v.07c.62 2.91 2.77 3.22 4.58 3.48a5.09 5.09 0 0 1 3.1 1.1 13 13 0 0 0 3.14 1.25c.4.12.74.23.95.31z"/><path d="m138.48 357.29c2.9-1.76 3.31-1.71 4-1.64a4.58 4.58 0 0 0 2-.31 15.59 15.59 0 0 1 2.8-.63c.8-.11 1-.13 3.38-1.9l.6.83c-2.63 1.91-2.82 1.94-3.84 2.08a14.11 14.11 0 0 0 -2.64.6 5.48 5.48 0 0 1 -2.46.35c-.48-.05-.77-.08-3.37 1.49z"/><path d="m122.9 353.82c-5.7 0-6.46-1.63-7.52-4a11.5 11.5 0 0 0 -1.92-3.13 1.29 1.29 0 0 1 -.22-.7v-.1l1-.13v.11c0 .08-.09.07 0 .13a12.51 12.51 0 0 1 2.09 3.4c.9 2 1.54 3.38 6.59 3.37z"/><path d="m128.81 346.57a12.62 12.62 0 0 0 1.14-3.46 10.05 10.05 0 0 1 2.82-5.62.7.7 0 0 0 .1-.92 4.13 4.13 0 0 1 -.06-3.23l1 .31a3.23 3.23 0 0 0 0 2.54 1.53 1.53 0 0 1 -.29 2 9.14 9.14 0 0 0 -2.58 5.13 14 14 0 0 1 -1.23 3.72z"/><path d="m128.16 351.49a9 9 0 0 0 -2-3.53 6.46 6.46 0 0 1 -1.45-2.32 6 6 0 0 1 -.62-3.08c0-.67.06-1-2.35-3.53l-.18-.2a3.21 3.21 0 0 1 -1.29-1.78c-.15-.29-.09-.38.14-.28.29-.11 1 .24 1.89 1.35l.11.09.49.47c2.33 2.5 2.3 3 2.25 3.9a5.27 5.27 0 0 0 .54 2.64 5.63 5.63 0 0 0 1.26 2 9.88 9.88 0 0 1 2.17 3.86z"/><path d="m134.53 357c.6-.57 1-1 1.4-1.41a7.59 7.59 0 0 1 3.41-2.34c1.68-.68 2.26-2.59 2.81-4.42s1.08-3.58 2.62-4.39v-.17l1-.12v.14c.08.43.14.74-.41 1-1.25.57-1.73 2.18-2.23 3.84-.63 2.07-1.28 4.21-3.42 5.08a6.84 6.84 0 0 0 -3.05 2.09c-.37.39-.8.85-1.44 1.45z"/><path d="m123.71 364.41a8.49 8.49 0 0 1 -1.74-4.05 5.17 5.17 0 0 0 -.79-2.2l.87-.55a6.13 6.13 0 0 1 .92 2.57 7.72 7.72 0 0 0 1.58 3.63z"/><path d="m117 352.21a13.9 13.9 0 0 0 -2.17-.09c-1.79 0-3.06.06-4.27-2.1l.89-.5c.91 1.62 1.93 1.6 3.36 1.58a13.93 13.93 0 0 1 2.34.1z"/><path d="m116.22 341.23v.12h.07zm4.71 5.68c-1.92-1.94-2.38-2-2.85-2.06a3.37 3.37 0 0 1 -2-1 2.33 2.33 0 0 1 -.65-1.08 3.82 3.82 0 0 1 -.21-1.09 1.67 1.67 0 0 1 .28-1.05.84.84 0 0 1 .41-.28l.28.84.11.08a.73.73 0 0 0 0 .38 2.87 2.87 0 0 0 .14.8 1.53 1.53 0 0 0 .33.61 2.65 2.65 0 0 0 1.46.74c.65.08 1.28.16 3.45 2.35z"/><path d="m140.77 356.1a12.2 12.2 0 0 1 3.86 1 11.5 11.5 0 0 0 2.51.79 3.41 3.41 0 0 0 .94-.13l.31-.07 1 .4a1.48 1.48 0 0 1 -1 .66 4 4 0 0 1 -1.4.14 12.12 12.12 0 0 1 -2.71-.85 11.84 11.84 0 0 0 -3.59-.94z"/><path d="m128.06 355.06c-.88-3.28-2-3.71-3-4.08-1.22-.46-2.21-.84-2.34-4.21 0-.34 0-.45 0-.56a3.93 3.93 0 0 1 0-.52l1-.06a2.72 2.72 0 0 0 0 .44 5.73 5.73 0 0 1 0 .66c.11 2.7.81 3 1.68 3.3 1.19.45 2.61 1 3.62 4.77z"/><path d="m135.74 338.67c.24-.11.55-.22.91-.35 1.59-.58 4.34-1.58 4.12-2.94l1-.16c.35 2.19-2.9 3.38-4.78 4.06-.36.13-.67.24-.85.33z"/><path d="m138.24 343.88.61-.24c1.51-.57 3.78-1.44 3.86-3.25h1c-.1 2.48-2.76 3.49-4.52 4.17l-.59.23z"/><path d="m683 31.57a26.58 26.58 0 1 1 17.46 50.22l-25.11 8.74-25.11 8.73-8.73-25.11-8.73-25.15a26.59 26.59 0 0 1 50.22-17.43" fill-rule="evenodd"/></g><g mask="url(#e)"><path d="m714.66 48.42c2.91 8.38 1.56 16.47-3 18.06s-.64-7.4-3.56-15.78-11.58-13-7-14.58 10.65 3.91 13.57 12.3" fill="#fff" fill-rule="evenodd"/></g><g mask="url(#f)"><path d="m650 17.12c-8.39 2.92-13.89 9-12.3 13.57s6.19-4.09 14.58-7 17.37 1 15.78-3.55-9.68-5.92-18.06-3" fill="#fff" fill-rule="evenodd"/></g><g mask="url(#g)"><path d="m634.46 36.43a13.61 13.61 0 0 0 -.47 4.8 36.71 36.71 0 0 0 1.31 7.89c.81 3.07 2 6.59 4.63 14.07l8.75 25.15c2.16 6.23 2.51 7.23 2.7 6.39s.2-3.53-.33-8.31a132.89 132.89 0 0 0 -3.39-18.28 175 175 0 0 0 -6-17.76c-1.82-4.75-3-7.87-3.95-10a19.37 19.37 0 0 0 -2-4c-.5-.65-1-.77-1.29.06" fill="#fff" fill-rule="evenodd"/></g><text fill="#fff" font-family="BobbyJonesSoft-Regular, Bobby Jones Soft" font-size="57.62" transform="matrix(.90016679 .43554534 -.43554534 .90016679 647.91 74.36)">S</text></g></svg>