<svg width="551" height="415" viewBox="0 0 551 415" fill="none" xmlns="http://www.w3.org/2000/svg">
<path d="M19.8653 328.394C22.3782 315.949 28.5415 302.485 34.9595 302.485C37.3535 302.485 38.1006 304.489 38.1006 307.647C38.1006 318.088 29.5433 327.766 19.8653 328.394ZM97.8323 343.114C97.8323 336.068 103.877 320.856 103.877 310.669C103.877 300.482 97.9682 296.458 89.9202 296.458C86.015 296.458 80.4799 297.46 75.1995 303.504L76.5918 296.967H58.4753L49.9179 337.342C43.6357 344.506 37.5913 350.041 27.6586 350.041C21.6311 350.041 18.6089 348.038 18.6089 339.481C18.6089 337.97 18.7277 336.204 18.8635 334.455C33.9578 333.572 47.7956 322.384 47.7956 307.918C47.7956 301.636 45.1469 295.847 33.9578 295.847C8.18382 295.847 0 326.153 0 340.618C0 355.084 7.79331 360.619 19.6276 360.619C32.158 360.619 41.3096 354.048 48.1182 345.882L45.1469 359.855H63.2633L71.8207 319.48C73.7053 313.198 77.1011 307.918 81.6345 307.918C84.6567 307.918 86.1678 310.176 86.1678 314.336C86.1678 322.384 80.5139 337.851 80.5139 346.408C80.5139 353.573 83.5361 360.619 93.2141 360.619C99.8868 360.619 105.914 356.714 107.052 347.664C106.305 348.174 105.048 348.428 102.909 348.428C99.1397 348.428 97.8833 346.289 97.8833 343.148M175.477 280.651C175.477 266.814 161.147 265.557 155.238 265.557C139.006 265.557 126.187 274.997 126.187 288.071C126.187 306.56 151.978 314.234 151.978 335.729C151.978 346.289 145.815 352.452 137.393 352.452C128.972 352.452 125.321 346.663 125.321 340.381C125.321 331.705 133.25 328.564 140.042 328.564C139.668 322.027 133.369 320.261 128.972 320.261C120.177 320.261 110.482 327.307 110.482 340.89C110.482 356.238 122.808 362.52 137.138 362.52C155.374 362.52 172.472 352.215 172.472 331.077C172.472 303.911 144.168 301.399 144.168 282.909C144.168 275.371 148.82 271.466 155.73 271.466C162.641 271.466 165.035 275.49 165.035 279.887C165.035 284.03 162.777 288.682 159.381 290.702C161.011 292.587 162.895 293.351 165.171 293.351C171.453 293.351 175.477 287.935 175.477 280.651ZM217.228 310.838C214.97 311.84 213.323 314.115 213.323 317.63C213.323 320.143 214.087 322.282 216.718 322.91C214.715 337.749 208.297 349.074 202.134 349.074C197.363 349.074 195.716 347.189 195.716 338.887C195.716 326.56 203.509 303.555 212.44 303.555C215.717 303.555 216.973 305.558 217.211 310.855M251.287 339.532L265.754 271.619L247.145 274.131L238.638 313.945C235.225 315.338 231.779 316.272 228.909 316.272C228.536 316.272 228.026 316.272 227.517 316.017C227.517 302.808 222.237 295.898 211.421 295.898C185.511 295.898 176.954 326.085 176.954 340.55C176.954 355.016 185.375 360.415 197.074 360.415C212.542 360.415 225.123 345.831 227.127 322.553C230.743 321.959 234.207 321.008 237.382 319.769L233.663 337.138C233.035 340.16 232.662 342.927 232.662 345.321C232.662 356.018 238.57 360.67 246.126 360.67C252.917 360.67 259.335 356.391 259.964 347.461C259.2 347.834 258.198 348.225 255.94 348.225C252.035 348.225 250.778 346.085 250.778 343.199C250.778 342.062 251.033 340.805 251.287 339.549M309.372 302.706C309.372 292.723 299.015 291.806 294.753 291.806C283.038 291.806 273.768 298.614 273.768 308.071C273.768 321.416 292.393 326.968 292.393 342.503C292.393 350.126 287.945 354.575 281.849 354.575C275.754 354.575 273.122 350.398 273.122 345.848C273.122 339.583 278.844 337.308 283.751 337.308C283.479 332.588 278.929 331.314 275.754 331.314C269.387 331.314 262.409 336.408 262.409 346.204C262.409 357.291 271.306 361.824 281.663 361.824C294.838 361.824 307.182 354.371 307.182 339.124C307.182 319.497 286.739 317.681 286.739 304.336C286.739 298.886 290.101 296.067 295.093 296.067C300.085 296.067 301.817 298.971 301.817 302.146C301.817 305.151 300.187 308.512 297.725 309.956C298.896 311.314 300.272 311.857 301.902 311.857C306.435 311.857 309.355 307.952 309.355 302.689M470.179 308.971L464.152 337.393C462.641 344.693 457.36 348.462 453.71 348.462C451.452 348.462 447.428 348.344 447.428 338.649C447.428 326.832 454.338 304.183 465.035 304.183C469.059 304.183 470.196 307.46 470.196 308.954M350.223 310.838C347.965 311.84 346.318 314.115 346.318 317.63C346.318 320.143 347.065 322.282 349.714 322.91C347.711 337.749 341.293 349.074 335.129 349.074C330.358 349.074 328.711 347.189 328.711 338.887C328.711 326.56 336.505 303.555 345.435 303.555C348.712 303.555 349.969 305.558 350.206 310.855M481.759 339.786L490.809 297.035H472.692L471.3 303.708V302.825C471.3 299.174 468.278 296.407 461.113 296.407C439.227 296.407 428.785 323.453 428.785 340.432C428.785 340.635 428.785 340.805 428.802 341.009C426.628 345.542 424.285 348.479 419.854 348.479C416.085 348.479 414.828 346.34 414.828 343.199C414.828 336.153 420.873 320.941 420.873 310.754C420.873 300.567 414.964 296.543 406.916 296.543C403.011 296.543 397.476 297.544 392.195 303.589L393.571 297.052H375.454L371.889 313.844C368.374 315.304 364.808 316.289 361.871 316.289C361.497 316.289 360.988 316.288 360.496 316.034C360.496 302.825 355.215 295.915 344.4 295.915C318.49 295.915 309.933 326.102 309.933 340.567C309.933 355.033 318.354 360.432 330.053 360.432C345.52 360.432 358.102 345.848 360.105 322.57C363.824 321.959 367.389 320.958 370.649 319.65L362.109 359.906H380.225L388.783 319.531C390.667 313.249 394.063 307.969 398.596 307.969C401.619 307.969 403.13 310.227 403.13 314.387C403.13 322.435 397.476 337.902 397.476 346.459C397.476 353.624 401.381 360.67 412.315 360.67C417.341 360.67 424.082 359.159 430.109 349.583C432.758 357.614 439.023 360.67 445.509 360.67C454.44 360.67 460.484 354.761 464.254 348.972C465.255 356.272 469.789 360.67 476.58 360.67C483.372 360.67 485.766 356.765 489.162 347.97C488.279 348.344 487.532 348.479 486.394 348.479C482.879 348.479 481.233 347.342 481.233 343.827C481.233 342.69 481.351 341.433 481.742 339.803M516.956 274.148C516.956 269.377 514.07 265.846 508.908 265.846C503.747 265.846 499.723 269.87 499.723 274.658C499.723 278.172 502.117 280.685 505.258 282.587C506.259 283.215 506.769 283.962 506.769 284.726L500.605 293.521C500.605 294.149 500.86 294.777 501.743 295.286C511.302 289.123 516.956 280.702 516.956 274.165M543.375 297.052C545.769 285.728 547.654 277.188 547.654 277.188L529.045 279.7L525.276 297.052H521.133L520.131 302.078H524.274L516.226 339.803C515.717 342.062 515.479 344.337 515.479 346.476C515.479 354.524 519.248 360.687 528.06 360.687C532.339 360.687 537.874 359.176 541.389 348.36C540.387 348.734 538.995 348.734 538.129 348.734C534.733 348.734 533.731 346.849 533.731 344.201C533.731 342.826 533.986 341.314 534.359 339.803L542.407 302.078H549.946L550.948 297.052H543.409H543.375Z" fill="white"/>
<path d="M156.002 390.84H161.944V388.005H146.782V390.84H152.725V408.192H156.019V390.84H156.002ZM175.443 408.192H177.989V392.928H174.729V400.535C174.729 402.453 174.407 403.811 173.762 404.626C173.116 405.441 172.115 405.849 170.756 405.849C169.738 405.849 168.991 405.56 168.515 404.966C168.04 404.389 167.802 403.506 167.802 402.334V392.928H164.525V402.912C164.525 404.779 164.984 406.171 165.9 407.088C166.817 408.005 168.193 408.464 170.043 408.464C171.113 408.464 172.064 408.26 172.896 407.852C173.728 407.445 174.373 406.885 174.814 406.188H174.984L175.443 408.192ZM192.438 398.939C192.557 397.682 192.931 396.732 193.542 396.086C194.153 395.441 194.985 395.102 196.021 395.102C197.057 395.102 197.855 395.424 198.449 396.069C199.043 396.715 199.349 397.665 199.366 398.939H192.438ZM192.388 401.282H202.558V399.533C202.558 397.394 201.981 395.713 200.809 394.49C199.637 393.268 198.041 392.657 196.038 392.657C193.865 392.657 192.167 393.37 190.91 394.796C189.671 396.222 189.043 398.175 189.043 400.671C189.043 403.166 189.705 405 191.046 406.392C192.388 407.784 194.238 408.464 196.615 408.464C197.651 408.464 198.585 408.379 199.383 408.226C200.198 408.073 200.996 407.801 201.777 407.428V404.796C200.877 405.187 200.045 405.475 199.264 405.645C198.483 405.815 197.651 405.9 196.751 405.9C195.376 405.9 194.323 405.509 193.559 404.711C192.795 403.913 192.404 402.776 192.354 401.299M216.379 408.192H219.639V398.243C219.639 394.524 217.805 392.657 214.154 392.657C213.119 392.657 212.185 392.861 211.336 393.251C210.487 393.642 209.842 394.202 209.383 394.932H209.214L208.755 392.928H206.208V408.192H209.451V400.586C209.451 398.684 209.774 397.326 210.402 396.511C211.03 395.696 212.032 395.288 213.407 395.288C214.443 395.288 215.19 395.577 215.666 396.154C216.141 396.732 216.379 397.614 216.379 398.786V408.175V408.192ZM227.058 397.835C226.617 397.496 226.396 397.105 226.396 396.613C226.396 395.645 227.245 395.153 228.96 395.153C230.081 395.153 231.473 395.492 233.12 396.171L234.173 393.726C232.577 392.996 230.879 392.64 229.079 392.64C227.279 392.64 225.836 392.996 224.783 393.726C223.731 394.456 223.204 395.458 223.204 396.765C223.204 397.852 223.51 398.735 224.138 399.414C224.766 400.093 225.955 400.772 227.704 401.452C228.603 401.808 229.3 402.114 229.809 402.385C230.318 402.657 230.675 402.929 230.896 403.183C231.116 403.438 231.235 403.761 231.235 404.151C231.235 405.357 230.233 405.951 228.247 405.951C226.702 405.951 225.038 405.543 223.238 404.711V407.513C224.478 408.124 226.108 408.43 228.145 408.43C230.183 408.43 231.728 408.039 232.814 407.241C233.901 406.443 234.444 405.306 234.444 403.811C234.444 403.081 234.308 402.436 234.037 401.91C233.765 401.384 233.341 400.908 232.763 400.501C232.186 400.093 231.269 399.652 230.013 399.159C228.519 398.582 227.534 398.124 227.092 397.801M253.63 389.55L254.479 387.088C253.376 386.714 252.255 386.528 251.117 386.528C249.386 386.528 248.078 386.969 247.246 387.835C246.397 388.701 245.973 390.042 245.973 391.842V392.844L243.46 393.845V395.356H245.973V408.158H249.233V395.356H252.951V392.894H249.233V391.893C249.233 390.976 249.403 390.297 249.742 389.838C250.082 389.38 250.608 389.159 251.355 389.159C252.102 389.159 252.849 389.295 253.647 389.55M264.191 402.199C264.191 403.387 263.835 404.304 263.122 404.966C262.408 405.628 261.458 405.951 260.286 405.951C259.471 405.951 258.877 405.764 258.469 405.39C258.062 405.017 257.858 404.491 257.858 403.811C257.858 402.878 258.198 402.182 258.894 401.723C259.59 401.265 260.694 401.01 262.222 400.959L264.174 400.874V402.199H264.191ZM265.108 408.158H267.434V397.869C267.434 396.052 266.942 394.728 265.957 393.879C264.972 393.03 263.495 392.606 261.56 392.606C260.694 392.606 259.76 392.725 258.775 392.945C257.79 393.166 256.89 393.506 256.058 393.93L257.111 396.256C257.773 395.951 258.469 395.679 259.182 395.441C259.896 395.203 260.643 395.102 261.441 395.102C262.391 395.102 263.105 395.339 263.563 395.832C264.021 396.307 264.242 397.037 264.242 398.022V398.837L261.61 398.922C259.216 398.99 257.434 399.431 256.262 400.229C255.091 401.027 254.513 402.216 254.513 403.795C254.513 405.272 254.938 406.426 255.77 407.224C256.602 408.022 257.773 408.447 259.284 408.447C260.456 408.447 261.407 408.277 262.154 407.937C262.901 407.598 263.631 406.969 264.378 406.036H264.48L265.125 408.158H265.108ZM274.854 397.801C274.413 397.462 274.192 397.071 274.192 396.579C274.192 395.611 275.041 395.119 276.756 395.119C277.876 395.119 279.268 395.458 280.915 396.137L281.968 393.692C280.372 392.962 278.674 392.606 276.874 392.606C275.075 392.606 273.631 392.962 272.579 393.692C271.526 394.422 271 395.424 271 396.732C271 397.818 271.305 398.701 271.934 399.38C272.562 400.059 273.75 400.738 275.499 401.418C276.399 401.774 277.112 402.08 277.605 402.351C278.114 402.623 278.47 402.895 278.691 403.149C278.912 403.404 279.031 403.727 279.031 404.117C279.031 405.323 278.029 405.917 276.042 405.917C274.497 405.917 272.833 405.509 271.034 404.677V407.479C272.273 408.09 273.903 408.396 275.941 408.396C277.978 408.396 279.523 408.005 280.61 407.207C281.696 406.409 282.24 405.272 282.24 403.778C282.24 403.047 282.104 402.402 281.832 401.876C281.561 401.35 281.136 400.874 280.559 400.467C279.982 400.059 279.082 399.618 277.808 399.125C276.314 398.548 275.329 398.09 274.888 397.767M301.052 397.767C301.052 399.771 300.119 400.772 298.234 400.772C297.317 400.772 296.604 400.518 296.112 400.008C295.619 399.499 295.381 398.752 295.381 397.801C295.381 396.782 295.619 396.001 296.112 395.475C296.587 394.949 297.3 394.677 298.251 394.677C299.202 394.677 299.898 394.949 300.373 395.492C300.832 396.035 301.069 396.799 301.069 397.784M297.045 408.073H299.507C300.798 408.073 301.681 408.209 302.156 408.497C302.631 408.786 302.869 409.245 302.869 409.907C302.869 410.739 302.445 411.418 301.579 411.927C300.713 412.436 299.405 412.691 297.64 412.691C296.502 412.691 295.619 412.504 294.991 412.131C294.363 411.757 294.04 411.214 294.04 410.518C294.04 409.771 294.312 409.177 294.855 408.752C295.398 408.311 296.145 408.09 297.062 408.09M303.412 395.153L306.027 394.677V392.894H300.747C300.509 392.827 300.152 392.776 299.677 392.708C299.202 392.64 298.743 392.623 298.319 392.623C296.383 392.623 294.906 393.081 293.853 393.998C292.801 394.915 292.291 396.188 292.291 397.852C292.291 398.888 292.529 399.788 293.038 400.552C293.531 401.316 294.176 401.876 294.957 402.216C294.329 402.606 293.836 402.997 293.514 403.387C293.191 403.778 293.038 404.27 293.038 404.83C293.038 405.289 293.174 405.713 293.463 406.121C293.751 406.528 294.108 406.834 294.532 407.02C293.463 407.275 292.631 407.717 292.037 408.345C291.442 408.99 291.137 409.771 291.137 410.705C291.137 412.063 291.68 413.116 292.784 413.846C293.87 414.576 295.466 414.949 297.538 414.949C300.237 414.949 302.292 414.474 303.718 413.54C305.144 412.606 305.857 411.265 305.857 409.533C305.857 408.175 305.416 407.139 304.55 406.426C303.684 405.713 302.394 405.357 300.713 405.357H298.047C297.164 405.357 296.57 405.272 296.247 405.102C295.925 404.932 295.755 404.66 295.755 404.321C295.755 403.744 296.095 403.234 296.808 402.81C297.198 402.878 297.64 402.912 298.132 402.912C300.034 402.912 301.528 402.453 302.614 401.553C303.701 400.654 304.244 399.414 304.244 397.835C304.244 397.309 304.16 396.816 304.007 396.341C303.854 395.866 303.65 395.475 303.412 395.153ZM311.342 398.905C311.46 397.648 311.834 396.698 312.445 396.052C313.056 395.407 313.888 395.068 314.924 395.068C315.96 395.068 316.758 395.39 317.352 396.035C317.946 396.681 318.252 397.631 318.269 398.905H311.342ZM311.291 401.248H321.461V399.499C321.461 397.36 320.884 395.679 319.712 394.456C318.541 393.234 316.945 392.623 314.941 392.623C312.768 392.623 311.07 393.336 309.813 394.762C308.574 396.188 307.946 398.141 307.946 400.637C307.946 403.132 308.608 404.966 309.949 406.358C311.291 407.75 313.141 408.43 315.518 408.43C316.554 408.43 317.488 408.345 318.286 408.192C319.101 408.039 319.899 407.767 320.68 407.394V404.762C319.78 405.153 318.948 405.441 318.167 405.611C317.386 405.781 316.554 405.866 315.654 405.866C314.279 405.866 313.226 405.475 312.462 404.677C311.698 403.879 311.308 402.742 311.257 401.265M333.075 397.818C333.075 399.822 332.141 400.823 330.256 400.823C329.339 400.823 328.626 400.569 328.134 400.059C327.641 399.55 327.387 398.803 327.387 397.852C327.387 396.833 327.624 396.052 328.117 395.526C328.592 395 329.305 394.728 330.256 394.728C331.207 394.728 331.903 395 332.378 395.543C332.837 396.086 333.075 396.85 333.075 397.835M329.051 408.124H331.512C332.803 408.124 333.686 408.26 334.161 408.548C334.637 408.837 334.874 409.295 334.874 409.958C334.874 410.79 334.45 411.469 333.584 411.978C332.718 412.487 331.411 412.742 329.645 412.742C328.507 412.742 327.624 412.555 326.996 412.182C326.368 411.808 326.045 411.265 326.045 410.569C326.045 409.822 326.317 409.228 326.86 408.803C327.404 408.362 328.151 408.141 329.068 408.141M335.418 395.203L338.032 394.728V392.945H332.752C332.514 392.877 332.158 392.827 331.682 392.759C331.207 392.691 330.748 392.674 330.324 392.674C328.388 392.674 326.911 393.132 325.859 394.049C324.823 394.966 324.296 396.239 324.296 397.903C324.296 398.939 324.534 399.839 325.044 400.603C325.536 401.367 326.181 401.927 326.962 402.266C326.334 402.657 325.842 403.047 325.519 403.438C325.196 403.828 325.027 404.321 325.027 404.881C325.027 405.34 325.162 405.764 325.451 406.171C325.723 406.579 326.079 406.885 326.521 407.071C325.451 407.326 324.619 407.767 324.025 408.396C323.431 409.041 323.125 409.822 323.125 410.756C323.125 412.114 323.668 413.167 324.772 413.897C325.859 414.627 327.455 415 329.526 415C332.226 415 334.28 414.525 335.706 413.591C337.133 412.657 337.846 411.316 337.846 409.584C337.846 408.226 337.404 407.19 336.538 406.477C335.655 405.764 334.382 405.407 332.701 405.407H330.035C329.152 405.407 328.558 405.323 328.236 405.153C327.913 404.983 327.743 404.711 327.743 404.372C327.743 403.794 328.1 403.285 328.796 402.861C329.186 402.929 329.628 402.963 330.12 402.963C332.022 402.963 333.516 402.504 334.603 401.604C335.689 400.704 336.233 399.465 336.233 397.886C336.233 397.36 336.148 396.867 335.995 396.392C335.842 395.917 335.638 395.526 335.401 395.203M349.459 402.249C349.459 403.438 349.103 404.355 348.39 405.017C347.676 405.679 346.726 406.002 345.554 406.002C344.739 406.002 344.128 405.815 343.737 405.441C343.33 405.068 343.126 404.542 343.126 403.862C343.126 402.929 343.466 402.232 344.162 401.774C344.858 401.316 345.962 401.061 347.49 401.01L349.442 400.925V402.249H349.459ZM350.376 408.209H352.702V397.92C352.702 396.103 352.21 394.779 351.225 393.93C350.24 393.081 348.763 392.657 346.827 392.657C345.945 392.657 345.028 392.776 344.043 392.996C343.058 393.217 342.158 393.557 341.326 393.981L342.379 396.307C343.041 396.001 343.737 395.73 344.45 395.492C345.164 395.254 345.911 395.153 346.709 395.153C347.659 395.153 348.373 395.39 348.831 395.883C349.289 396.358 349.51 397.088 349.51 398.073V398.888L346.878 398.973C344.484 399.041 342.702 399.482 341.53 400.28C340.358 401.078 339.781 402.266 339.781 403.845C339.781 405.323 340.206 406.477 341.038 407.275C341.887 408.09 343.058 408.497 344.552 408.497C345.724 408.497 346.675 408.328 347.422 407.988C348.169 407.649 348.916 407.02 349.646 406.087H349.765L350.41 408.209H350.376ZM367.389 408.209H370.649V398.26C370.649 394.541 368.815 392.674 365.148 392.674C364.112 392.674 363.178 392.877 362.329 393.268C361.48 393.658 360.835 394.219 360.36 394.949H360.19L359.731 392.945H357.185V408.209H360.428V400.603C360.428 398.701 360.75 397.343 361.378 396.528C362.007 395.713 363.008 395.305 364.384 395.305C365.419 395.305 366.166 395.594 366.642 396.171C367.117 396.749 367.355 397.631 367.355 398.803V408.192L367.389 408.209ZM381.838 408.328C382.398 408.226 382.874 408.09 383.23 407.937V405.492C382.432 405.747 381.651 405.866 380.853 405.866C380.225 405.866 379.699 405.679 379.308 405.306C378.918 404.932 378.714 404.355 378.714 403.574V395.407H383.06V392.945H378.714V389.55H376.71L375.607 392.776L373.365 393.964V395.407H375.454V403.625C375.454 406.868 376.999 408.481 380.072 408.481C380.683 408.481 381.261 408.43 381.838 408.328ZM389.173 397.852C388.731 397.513 388.511 397.122 388.511 396.63C388.511 395.662 389.36 395.17 391.074 395.17C392.195 395.17 393.587 395.509 395.234 396.188L396.287 393.743C394.691 393.013 392.993 392.657 391.193 392.657C389.394 392.657 387.95 393.013 386.898 393.743C385.845 394.473 385.319 395.475 385.319 396.782C385.319 397.869 385.624 398.752 386.252 399.431C386.881 400.11 388.069 400.789 389.818 401.468C390.718 401.825 391.431 402.131 391.923 402.402C392.433 402.674 392.789 402.946 393.01 403.2C393.231 403.455 393.35 403.778 393.35 404.168C393.35 405.373 392.348 405.968 390.361 405.968C388.816 405.968 387.152 405.56 385.353 404.728V407.53C386.592 408.141 388.222 408.447 390.259 408.447C392.297 408.447 393.842 408.056 394.929 407.258C396.015 406.46 396.559 405.323 396.559 403.828C396.559 403.098 396.423 402.453 396.151 401.927C395.879 401.401 395.455 400.925 394.878 400.518C394.3 400.11 393.384 399.669 392.127 399.176C390.633 398.599 389.648 398.141 389.207 397.818M400.124 404.898C399.768 405.255 399.581 405.764 399.581 406.46C399.581 407.156 399.768 407.666 400.124 408.039C400.481 408.413 400.99 408.599 401.652 408.599C402.314 408.599 402.79 408.413 403.146 408.022C403.503 407.649 403.673 407.122 403.673 406.477C403.673 405.832 403.503 405.306 403.146 404.949C402.79 404.576 402.297 404.389 401.635 404.389C400.973 404.389 400.464 404.559 400.107 404.915M402.858 402.063L403.571 388.022H399.751L400.464 402.063H402.858Z" fill="white"/>
<path d="M367.1 151.99C371.973 145.759 373.179 143.789 373.179 143.789C373.179 143.789 360.02 149.137 359.596 149.579C359.171 150.02 355.538 136.76 354.893 136.794C354.247 136.828 342.719 147.422 342.719 147.422C342.719 147.422 339.832 135.062 336.912 134.434C333.992 133.806 337.336 135.843 336.538 145.708C336.318 148.526 330.969 164.044 331.496 161.905C330.375 160.835 328.456 164.129 328.456 164.129L328.27 164.893C328.27 164.893 328.117 164.961 328.049 164.995C315.841 140.105 293.769 134.943 274.939 127.337C268.657 124.756 264.174 118.203 264.174 112.108C264.174 103.058 271.509 95.7236 280.559 95.7236C289.609 95.7236 296.944 103.058 296.944 112.108C296.944 113.177 296.825 114.213 296.638 115.232L287.317 114.756L308.523 135.317C313.447 125.792 313.192 112.243 308.048 101.191C307.301 100.206 306.52 99.2551 305.671 98.3722C296.621 88.8304 284.464 87.8117 279.642 87.8117C269.013 87.8117 260.558 90.2905 254.632 94.9256C251.05 101.258 249.64 109.561 250.778 118.593C252.731 134.128 268.453 140.444 285.092 147.134C304.295 154.859 324.144 162.839 323.991 185.912C323.94 192.89 322.259 199.24 319.135 204.673C317.692 209.257 314.992 213.553 311.019 217.356C303.09 224.945 290.288 230.141 277.095 230.141C269.642 230.141 262.052 228.494 255.142 224.691C244.852 219.037 229.402 204.419 233.188 168.34L212.525 181.464L220.233 182.992C220.335 183.637 220.454 184.231 220.556 184.86C220.522 185.233 220.488 185.624 220.488 186.031C220.488 216.202 244.954 240.667 275.126 240.667C282.749 240.667 289.999 239.071 296.587 236.253C297.691 235.896 298.574 235.54 299.185 235.234C308.812 230.31 315.485 225.607 326.894 225.607C339.493 225.607 349.816 229.071 359.698 235.404C364.791 238.205 364.078 238.715 371.005 235.37C374.079 233.893 368.951 228.12 368.951 228.12C368.951 228.12 370.972 228.222 371.379 225.879C371.787 223.536 370.377 223.417 368.662 223.146C366.948 222.874 366.472 222.738 366.472 222.738L368.73 220.191C368.73 220.191 366.965 217.916 368.849 218.477C370.734 219.054 372.788 220.701 375.046 217.543C377.288 214.385 373.366 212.772 371.09 208.629C368.815 204.486 366.574 202.076 368.51 199.376C370.462 196.676 371.837 195.878 372.228 193.06C372.618 190.259 370.106 188.765 369.24 185.997C368.391 183.23 367.966 179.036 363.518 175.267C361.973 173.96 360.784 173.077 359.867 172.465C359.867 171.837 359.782 170.954 359.239 170.734C358.356 170.36 360.53 159.188 367.117 152.024M245.022 160.801C239.759 178.442 241.27 193.637 249.267 204.503C249.114 204.028 248.961 203.553 248.825 203.06C245.871 192.738 245.837 180.123 248.707 165.487L245.328 160.598L245.022 160.784V160.801ZM255.838 223.383C261.831 226.677 268.351 228.307 274.82 228.613C271.238 227.95 267.757 226.694 264.565 224.826C260.167 222.229 256.483 218.561 253.63 214.011C253.002 213.519 252.391 213.01 251.814 212.466C244.462 205.845 233.748 190.955 240.642 163.586L234.801 167.304C230.641 203.4 245.803 217.848 255.855 223.383M301.324 220.107C295.466 222.602 289.116 223.825 282.8 223.825C273.75 223.825 264.769 221.346 257.315 216.609C259.59 219.376 262.256 221.702 265.346 223.519C276.535 230.141 291.663 228.715 301.324 220.09M310 216.269C311.766 214.589 313.26 212.806 314.5 210.972C311.902 213.774 308.795 216.202 305.229 218.171C304.346 219.224 303.396 220.225 302.343 221.176C301.358 222.059 300.322 222.857 299.236 223.587C303.362 221.601 307.029 219.105 310 216.269ZM318.948 196.626C318.914 192.381 317.811 187.967 315.603 183.501C307.844 167.813 291.307 159.952 275.329 152.363C266.823 148.322 258.537 144.383 251.933 139.392C257.739 146.641 266.365 151.412 275.296 156.336C287.979 163.331 301.103 170.581 307.827 185.539C311.97 194.775 312.479 203.57 309.525 211.006C313.362 207.712 316.979 203.06 318.965 196.626M247.348 119.018C246.635 113.33 246.873 107.897 247.96 102.956C245.854 107.014 244.751 111.836 244.751 117.337C244.751 124.451 246.279 130.122 248.876 134.825C255.787 141.429 265.736 146.149 275.975 151.022C292.19 158.73 308.965 166.693 316.945 182.839C318.473 185.946 319.492 189.053 320.001 192.126C320.324 190.174 320.51 188.102 320.527 185.878C320.663 165.165 302.767 157.966 283.802 150.343C266.959 143.568 249.556 136.573 247.331 119.001M315.569 120.597C315.434 125.52 314.483 130.274 312.683 134.536L316.164 132.091C316.266 127.999 316.062 124.162 315.552 120.597M258.011 90.1887C257.621 90.6131 257.247 91.0546 256.873 91.513C262.748 88.1003 270.389 86.3006 279.608 86.3006C284.26 86.3006 295.517 87.2344 304.652 95.3501C298.947 87.1665 290.712 82.4635 281.136 82.0221C271.356 81.5637 263.359 84.3821 257.994 90.1887M255.447 87.8287C261.526 81.2411 270.474 78.0492 281.289 78.5585C293.259 79.1188 303.328 85.5875 309.644 96.7762C312.106 101.123 313.77 105.894 314.704 110.732C316.741 116.573 317.726 123.364 317.658 131.038L321.835 128.101C323.736 113.924 319.984 100.053 311.359 89.7302C303.26 80.0356 291.986 74.6705 279.591 74.6366H279.337C253.936 74.6366 241.287 86.0799 239.504 110.647C238.876 119.222 241.236 125.809 245.464 131.174C244.003 127.218 243.188 122.668 243.188 117.337C243.188 109.425 245.328 102.854 249.386 97.8459C250.812 94.0427 252.849 90.6471 255.43 87.8626M323.448 126.964L337.116 117.337L329.424 116.098C327.675 99.5097 322.752 87.3363 314.619 79.5942C306.231 71.6144 294.023 66.8096 278.046 66.436C263.92 66.1134 252.663 69.4582 249.657 72.718C243.749 62.2764 232.78 52.8874 215.734 51.597C215.581 51.3763 215.411 51.1556 215.241 50.9518C215.224 49.9331 215.445 49.7634 215.988 49.3559C216.362 49.0672 216.871 48.6767 217.516 47.9127C219.554 45.5018 219.554 45.349 219.537 45.2471V44.6868L219.095 45.0774C219.095 45.0774 218.45 45.6886 217.737 45.5527C217.228 45.4678 216.786 45.0264 216.413 44.2794C215.734 42.9041 215.105 41.3761 215.632 40.5951C215.971 40.0688 216.854 39.865 218.196 39.9329C222.135 40.1706 224.8 41.9194 225.191 43.0909C225.293 43.4135 225.496 43.4644 225.598 43.4644C225.853 43.4644 226.074 43.2097 226.244 42.6495C226.702 41.2742 227.025 37.7767 225.055 36.2996C223.374 35.0432 222.525 34.5338 222.118 34.3131C222.321 33.9396 222.61 33.2265 222.457 32.3776C222.287 31.4608 221.625 30.6288 220.505 29.9497C219.876 29.5762 219.503 29.4743 219.214 29.6611C218.824 29.8988 218.892 30.493 218.977 31.257C219.078 32.1399 219.18 33.2435 218.586 33.8377C218.179 34.2452 217.465 34.381 216.43 34.2792C215.36 34.1603 214.732 33.8887 214.494 33.4472C214.07 32.6492 214.919 31.1212 215.886 29.3724C216.854 27.6067 218.06 25.4165 218.535 23.0395C219.265 19.2704 218.79 17.6914 218.246 17.0292C218.179 16.9443 218.111 16.8594 218.026 16.8085C219.18 16.2822 221.608 14.6862 220.946 10.9001C220.097 5.95938 216.532 4.97464 210.657 4.97464H210.351C208.636 4.97464 208.144 4.82183 208.008 4.75392C208.314 4.39738 210.266 3.68429 212.321 3.15796C213.458 2.86933 213.611 2.46185 213.56 2.17322C213.407 1.44315 211.574 1.20546 209.299 1.61294C207.72 1.88459 207.312 1.57898 207.21 1.42618C207.023 1.15452 207.261 0.645175 207.38 0.475392L207.686 0L197.872 1.30733C194.748 1.12057 188.296 0.764023 186.055 5.7896C184.204 9.9323 188.177 13.5317 189.213 14.3806C188.788 14.8051 187.854 15.8068 187.583 16.401C187.498 16.4689 187.039 16.4859 186.683 16.5029C184.968 16.5708 181.436 16.6897 179.636 21.4606C177.48 27.2162 178.21 30.1704 178.38 30.7137L177.141 35.3827L183.236 32.6323C183.236 33.9566 183.406 38.0823 184.832 40.3234C185.953 42.0892 187.124 43.2097 187.786 43.787C187.786 43.804 187.786 43.8379 187.786 43.8549C187.701 45.1283 189.433 49.2031 189.433 49.2031C189.433 49.2031 188.618 51.0028 188.584 51.5631C188.55 52.1233 188.398 52.2592 189.23 52.5987C190.062 52.9383 189.399 54.5852 189.399 54.5852L189.654 55.0266L188.618 55.8076C188.618 55.8076 188.432 56.6396 188.839 56.8094C189.264 56.9791 188.177 58.4732 188.177 58.4732C188.177 58.4732 187.956 59.8824 188.635 60.3408C189.314 60.7992 188.924 62.4801 188.924 62.4801C188.924 62.4801 187.651 64.6703 189.977 65.9437C192.303 67.217 195.461 64.2968 195.461 64.2968L195.902 63.1762C195.902 63.1762 195.936 63.1762 195.953 63.1762C196.089 63.1932 196.208 63.2271 196.327 63.2781C196.734 63.5497 197.413 64.0251 198.093 64.6194C200.113 67.6075 199.943 75.2817 197.94 80.2564C195.427 86.4704 192.099 88.9153 189.128 89.917C185.223 91.2413 183.049 91.9544 176.241 92.243L177.022 96.7593C179.365 97.5572 190.809 98.2364 191.335 99.8663C191.861 101.496 189.535 101.972 191.029 104.841C191.624 105.978 191.861 106.063 191.42 106.386C190.877 106.726 189.331 107.727 188.703 108.712C187.939 109.917 184.713 117.354 184.408 117.609C184.102 117.863 183.151 119.901 183.762 121.327C184.374 122.753 186.581 122.889 186.869 122.77C187.158 122.651 188.092 123.127 188.092 123.127L187.888 124.077C187.888 124.077 186.53 125.945 186.615 126.641C186.717 127.337 186.92 128.322 186.92 128.322C186.92 128.322 186.7 129.561 187.634 130.173C188.567 130.784 190.639 131.055 190.639 131.055L191.437 131.514C191.437 131.514 193.372 132.668 192.133 133.772C190.809 134.943 190.469 135.86 190.452 136.166C190.35 137.83 192.252 138.492 192.252 138.492L188.72 141.752C188.72 141.752 187.124 142.906 187.684 145.029C188.245 147.151 188.33 148.119 191.641 148.594C194.934 149.069 207.771 146.387 220.437 146.387C250.133 146.387 281.425 165.165 291.816 179.325C294.668 182.771 296.078 186.659 296.078 191.023C296.078 195.607 294.584 199.648 291.595 203.111C288.607 206.592 284.345 208.324 278.827 208.324C271.424 208.324 265.736 204.928 261.746 198.12C260.541 196.065 259.539 193.535 258.741 190.547L267.095 192.194L249.759 167.151C246.771 183.552 247.586 197.457 251.984 207.848C252.629 208.527 253.291 209.172 253.987 209.818C265.94 220.582 284.973 223.4 300.271 216.643C302.173 215.794 304.414 214.623 306.689 213.027C309.882 207.152 311.732 198.238 306.282 186.099C299.762 171.583 286.858 164.469 274.396 157.592C263.563 151.616 253.138 145.86 247.467 135.707C240.998 129.493 237.093 121.615 237.908 110.478C239.725 85.3159 253.24 73.0915 279.218 73.0915H279.472C292.291 73.1255 303.99 78.6774 312.377 88.7115C320.986 99.0174 324.891 112.77 323.346 126.879M206.005 44.3303C204.561 42.8872 203.882 41.41 203.186 39.882C202.779 38.9821 202.354 38.0653 201.76 37.1145C200.011 34.3471 198.228 33.1077 197.634 32.7511C197.753 32.4964 198.008 32.055 198.534 31.7664C199.196 31.4098 200.079 31.3929 201.166 31.7154C202.643 32.1739 203.203 33.2774 204.052 34.9583C204.986 36.775 206.259 39.2708 209.4 42.0722C212.202 44.568 214.205 45.9093 215.36 46.0451C214.953 46.5035 214.256 47.0978 213.289 47.3694C212.796 47.5052 212.27 47.5392 211.727 47.4883C209.859 46.113 207.838 45.0943 206.005 44.3303ZM214.766 50.3067C214.036 49.4408 213.238 48.6937 212.389 48.0146C212.745 48.0146 213.085 47.9637 213.424 47.8618C215.088 47.4034 215.971 46.164 216.209 45.7904C216.243 45.7395 216.277 45.6886 216.294 45.6376L215.818 45.4339C215.818 45.4339 215.818 45.4509 215.785 45.4848C215.768 45.4848 215.734 45.5188 215.649 45.5358C215.258 45.6037 213.866 45.366 209.74 41.6987C206.667 38.9652 205.41 36.5203 204.511 34.7376C203.628 33.0058 202.982 31.7664 201.302 31.24C200.079 30.8665 199.06 30.9005 198.262 31.3419C197.312 31.8682 197.057 32.7851 197.057 32.819L197.006 33.0228L197.193 33.1246C197.193 33.1246 199.315 34.2112 201.319 37.4201C201.896 38.337 202.303 39.2368 202.711 40.1197C203.305 41.41 203.882 42.6664 204.901 43.9058C202.915 43.1418 201.234 42.6495 200.385 42.225C198.042 41.0875 198.721 39.2878 196.174 39.1349C193.627 38.9821 193.355 38.9652 192.88 39.6443C192.405 40.3234 191.641 38.9991 189.875 40.1706C188.109 41.3421 189.026 42.3778 189.026 42.3778C189.026 42.3778 188.296 42.5306 187.956 43.2267C187.294 42.6325 186.275 41.5798 185.29 40.0518C183.694 37.556 183.762 32.2927 183.762 32.2418V31.8343L177.939 34.4829L178.94 30.6967L178.906 30.6288C178.906 30.6288 177.871 27.7086 180.146 21.6643C181.827 17.216 185.019 17.0971 186.734 17.0292C187.481 16.9953 187.922 16.9953 188.075 16.6387C188.347 16.0445 189.416 14.9239 189.807 14.5334L190.028 14.3127L189.773 14.1259C189.773 14.1259 184.611 10.3058 186.547 5.97636C188.398 1.83365 193.101 1.52805 197.889 1.7997H197.923L206.752 0.628197C206.65 0.933806 206.582 1.34128 206.803 1.68085C207.142 2.20718 208.008 2.343 209.4 2.08833C211.744 1.68085 212.966 2.03739 213.068 2.22416C213.051 2.27509 212.864 2.46185 212.219 2.61466C210.759 2.9712 207.38 3.92198 207.482 4.78788C207.533 5.19536 208.042 5.45003 210.368 5.45003C210.47 5.45003 210.589 5.45003 210.691 5.45003C216.396 5.45003 219.656 6.34988 220.454 10.951C221.218 15.3823 217.482 16.452 217.33 16.4859L217.381 16.9953C217.381 16.9953 217.635 17.0122 217.873 17.3348C218.246 17.8102 218.756 19.1855 218.026 22.8867C217.567 25.1788 216.396 27.335 215.428 29.0668C214.341 31.0363 213.492 32.5813 214.036 33.634C214.358 34.2452 215.105 34.6017 216.379 34.7376C217.584 34.8734 218.433 34.6697 218.96 34.1433C219.724 33.3793 219.605 32.1399 219.503 31.1382C219.469 30.7816 219.401 30.1025 219.503 30.0346C219.503 30.0346 219.639 29.9667 220.25 30.3232C221.235 30.9175 221.812 31.6136 221.965 32.3946C222.152 33.3793 221.557 34.1943 221.557 34.1943L221.337 34.4999L221.71 34.6017C221.71 34.6017 222.355 34.7885 224.783 36.6222C225.921 37.4881 226.108 39.1689 226.108 40.0857C226.108 41.3421 225.853 42.3438 225.666 42.7174C225.038 41.2403 222.084 39.5594 218.246 39.3217C216.667 39.2368 215.666 39.5255 215.207 40.2046C214.545 41.2063 215.173 42.8192 215.954 44.4152C216.396 45.332 216.973 45.8584 217.652 45.9772C217.924 46.0281 218.179 45.9942 218.399 45.9432C218.111 46.2998 217.703 46.7922 217.109 47.5052C216.498 48.2183 216.005 48.5919 215.666 48.8635C215.122 49.271 214.834 49.5426 214.749 50.2557M213.034 31.3249C213.238 30.9514 217.907 22.0378 217.177 19.2024C216.464 16.452 213.934 15.1786 208.942 15.1277C208.891 15.1277 208.84 15.1277 208.789 15.1277C205.427 15.1277 204.392 16.435 203.611 17.4027C203.356 17.7253 203.135 17.997 202.898 18.1328L202.66 18.2686L202.83 18.5063C203.05 18.8119 204.935 19.7288 209.553 21.3757C211.047 21.902 212.117 22.8358 212.711 24.1261C214.087 27.0973 212.593 31.0703 212.576 31.1042L213.051 31.3249H213.034ZM213.645 28.931C213.883 27.4709 213.934 25.5693 213.17 23.9054C212.508 22.4793 211.353 21.4606 209.706 20.8833C205.461 19.3722 203.967 18.6422 203.458 18.3535C203.645 18.1837 203.831 17.963 204.018 17.7253C204.714 16.8425 205.682 15.637 208.789 15.637H208.942C213.662 15.7049 216.039 16.8425 216.684 19.3383C217.16 21.1889 215.02 26.0786 213.662 28.948M218.043 10.7642C217.907 9.84741 217.262 9.08338 216.124 8.5231C212.423 6.70642 207.821 8.77777 204.782 10.136C204.375 10.3228 204.001 10.4926 203.662 10.6284C203.203 10.8152 202.762 11.0359 202.864 11.3924C202.932 11.6131 203.05 12.0716 207.974 11.5113C214.222 12.4621 215.717 14.6523 215.734 14.6692L215.903 14.9239L216.124 14.7202C216.209 14.6353 218.331 12.6998 218.06 10.7642M215.971 14.1429C215.394 13.4977 213.407 11.8169 208.025 10.985H207.991H207.957C206.276 11.1717 204.358 11.3075 203.611 11.2396C203.679 11.2057 203.763 11.1717 203.882 11.1208C204.222 10.985 204.595 10.8152 205.02 10.6284C207.974 9.3041 212.44 7.30066 215.937 8.99849C216.922 9.47388 217.465 10.1021 217.567 10.8491C217.754 12.1904 216.481 13.6505 215.988 14.1599M204.545 3.66731L205.19 3.42961L204.545 3.17494C204.545 3.17494 199.723 1.32431 195.868 5.14442C194.714 6.29894 194.136 7.55534 194.17 8.89662C194.204 10.951 195.665 12.513 196.004 12.8526C196.106 13.6336 196.259 13.8033 196.48 13.8033C196.751 13.8033 196.938 13.8033 197.142 10.7812C197.447 6.24801 204.443 3.68429 204.511 3.65033M203.628 3.44659C201.76 4.24457 196.887 6.7234 196.615 10.7473C196.564 11.6131 196.497 12.1904 196.446 12.5809L196.395 12.53C196.395 12.53 194.697 10.934 194.663 8.87964C194.646 7.69116 195.155 6.55362 196.208 5.51794C198.042 3.68429 200.113 3.22587 201.709 3.22587C202.49 3.22587 203.169 3.32774 203.628 3.44659ZM193.525 4.09177L193.678 3.73522H193.288C193.288 3.73522 188.482 3.73522 188.143 8.35332C187.973 10.5096 188.873 11.3075 189.416 11.5962C189.722 11.749 190.062 11.8339 190.401 11.8339C190.86 11.8339 191.318 11.698 191.675 11.4094C192.116 11.0529 192.303 10.5605 192.167 10.0511C191.725 8.40425 193.525 4.1427 193.542 4.09177M192.914 4.26155C192.473 5.38212 191.267 8.65893 191.675 10.187C191.793 10.5945 191.522 10.8831 191.369 11.0019C190.978 11.3075 190.282 11.4603 189.688 11.1378C188.941 10.7473 188.584 9.76251 188.686 8.38727C188.941 4.94068 191.844 4.34644 192.914 4.26155ZM192.523 15.7049C189.943 16.9104 188.516 18.2686 188.143 19.8476C187.786 21.3247 188.347 22.9546 189.841 24.8392C191.131 26.4691 192.184 27.4539 193.05 28.2519C194.357 29.4743 195.019 30.0685 195.104 31.6815C195.138 32.3436 195.257 32.6662 195.478 32.7681C195.529 32.7851 195.563 32.802 195.614 32.802C195.699 32.802 195.8 32.7681 195.868 32.7002C196.514 32.1569 197.091 28.6084 196.208 25.1958L196.038 24.5166C194.968 20.34 194.646 19.0836 198.5 17.946C202.32 16.8255 202.303 16.5878 202.286 16.3501C202.286 16.2312 202.184 16.1124 202.066 16.0784C201.624 15.8747 196.751 13.7015 192.523 15.6879M192.744 16.1633C193.95 15.5861 195.24 15.3993 196.446 15.3993C198.704 15.3993 200.707 16.0954 201.505 16.418C201.115 16.5878 200.249 16.9104 198.364 17.4537C194.035 18.727 194.476 20.4588 195.563 24.6355L195.732 25.3146C196.514 28.3877 196.021 31.291 195.665 32.089C195.648 31.9871 195.631 31.8513 195.614 31.6475C195.512 29.8308 194.714 29.0838 193.389 27.8614C192.54 27.0804 191.505 26.1126 190.231 24.4997C188.839 22.7509 188.33 21.2568 188.635 19.9495C188.975 18.5403 190.316 17.3009 192.727 16.1633M190.35 27.403C190.231 27.403 187.532 27.5897 185.579 31.3419C184 34.398 186.479 40.1536 187.566 41.41C187.701 41.5628 187.888 41.7496 188.092 41.7496C188.126 41.7496 188.16 41.7496 188.211 41.7326C188.33 41.6987 188.466 41.5798 188.482 41.2912C188.567 40.0178 192.286 35.2979 193.712 33.6L193.831 33.4642L190.52 27.403H190.35ZM190.231 27.9463L193.22 33.3963C192.371 34.432 188.398 39.2708 188.007 41.1044C187.668 40.7309 186.988 39.5764 186.411 37.9295C185.97 36.6731 185.036 33.5321 186.055 31.5626C187.6 28.5914 189.654 28.0311 190.231 27.9293M187.073 25.1958C188.075 22.1227 186.411 18.5233 186.326 18.3705L186.292 18.3026L186.241 18.2686C186.241 18.2686 185.749 17.9291 185.036 18.1158C184.153 18.3365 183.321 19.2364 182.557 20.7644C180.995 23.9564 181.114 29.9157 181.165 31.24C181.08 31.3589 181.08 31.4608 181.114 31.5626C181.131 31.6136 181.199 31.7494 181.419 31.7494H181.708V31.4777C181.708 31.4777 181.708 31.4608 181.708 31.4268C181.878 31.257 182.234 30.9344 182.574 30.6288C184.017 29.3555 186.411 27.2332 187.073 25.2128M186.581 25.043C185.97 26.9445 183.627 28.9989 182.234 30.2383C182.014 30.4251 181.844 30.5949 181.691 30.7307C181.657 28.8291 181.691 23.7526 183.032 21.0191C183.864 19.3043 184.645 18.778 185.155 18.6422C185.273 18.6082 185.375 18.5912 185.477 18.5912C185.681 18.5912 185.817 18.6422 185.902 18.6761C186.139 19.2024 187.447 22.3944 186.581 25.043ZM201.217 21.7662H200.317L201.081 22.2416C201.098 22.2416 203.135 23.6338 203.916 27.9972C204.477 31.2231 208.178 33.4982 209.927 34.398C210.063 34.4999 210.232 34.5848 210.436 34.6697C210.606 34.7376 210.708 34.7885 210.725 34.7885L210.827 34.8225H211.047L211.081 34.6187C211.115 34.4659 211.081 34.398 210.912 34.3301C210.912 34.3301 210.912 34.3301 210.895 34.3301C210.861 34.3131 210.827 34.2961 210.776 34.2792C210.657 34.2282 210.487 34.1433 210.249 34.0245C209.553 33.5491 209.502 32.6832 209.485 30.9344C209.485 29.8818 209.451 28.5575 209.231 26.9445C208.552 21.9529 204.816 21.868 201.183 21.8001M201.896 22.3434C205.682 22.4793 208.178 23.0395 208.721 27.0294C208.942 28.6254 208.942 29.9157 208.959 30.9514C208.959 31.9871 208.976 32.819 209.197 33.4472C207.414 32.3776 204.833 30.4421 204.392 27.9293C203.831 24.7374 202.626 23.0735 201.896 22.3264" fill="white"/>
</svg>
